<?xml version="1.0" encoding="UTF-8" standalone="no"?>
<!DOCTYPE svg PUBLIC "-//W3C//DTD SVG 1.1//EN"
 "http://www.w3.org/Graphics/SVG/1.1/DTD/svg11.dtd">
<!-- Generated by graphviz version 2.38.0 (20140413.2041)
 -->
<!-- Title: G Pages: 1 -->
<svg width="1416pt" height="404pt"
 viewBox="0.00 0.00 1415.50 404.00" xmlns="http://www.w3.org/2000/svg" xmlns:xlink="http://www.w3.org/1999/xlink">
<g id="graph0" class="graph" transform="scale(1 1) rotate(0) translate(4 400)">
<title>G</title>
<polygon fill="white" stroke="none" points="-4,4 -4,-400 1411.5,-400 1411.5,4 -4,4"/>
<!-- test_texttable -->
<g id="node1" class="node"><title>test_texttable</title>
<polygon fill="#ffd56b" stroke="black" points="135.5,-252 46.5,-252 46.5,-216 135.5,-216 135.5,-252"/>
<text text-anchor="middle" x="91" y="-230.3" font-family="Times,serif" font-size="14.00">test_texttable</text>
</g>
<!-- README -->
<g id="node2" class="node"><title>README</title>
<ellipse fill="#ffb26b" stroke="black" cx="202" cy="-234" rx="48.1917" ry="18"/>
<text text-anchor="middle" x="202" y="-230.3" font-family="Times,serif" font-size="14.00">README</text>
</g>
<!-- example -->
<g id="node3" class="node"><title>example</title>
<polygon fill="#ff7b54" stroke="black" points="331.5,-252 268.5,-252 268.5,-216 331.5,-216 331.5,-252"/>
<text text-anchor="middle" x="300" y="-230.3" font-family="Times,serif" font-size="14.00">example</text>
</g>
<!-- setup -->
<g id="node4" class="node"><title>setup</title>
<polygon fill="#ff7b54" stroke="black" points="382,-324 328,-324 328,-288 382,-288 382,-324"/>
<text text-anchor="middle" x="355" y="-302.3" font-family="Times,serif" font-size="14.00">setup</text>
</g>
<!-- texttable -->
<g id="node5" class="node"><title>texttable</title>
<polygon fill="#ffd56b" stroke="black" points="233.5,-324 170.5,-324 170.5,-288 233.5,-288 233.5,-324"/>
<text text-anchor="middle" x="202" y="-302.3" font-family="Times,serif" font-size="14.00">texttable</text>
</g>
<!-- texttable&#45;&gt;test_texttable -->
<g id="edge23" class="edge"><title>texttable&#45;&gt;test_texttable</title>
<polygon fill="#a3d2ca" stroke="none" stroke-width="4" points="175.913,-286.184 173.248,-284.613 170.514,-283.001 167.719,-281.353 164.872,-279.674 161.978,-277.968 159.047,-276.24 156.085,-274.494 153.101,-272.734 150.101,-270.965 147.093,-269.192 144.085,-267.418 141.085,-265.649 138.1,-263.889 135.137,-262.142 132.204,-260.413 129.309,-258.706 126.46,-257.026 123.663,-255.376 120.926,-253.763 118.258,-252.19 118.258,-252.19 120.828,-253.92 123.463,-255.694 126.156,-257.507 128.9,-259.354 131.688,-261.231 134.512,-263.132 137.365,-265.053 140.24,-266.989 143.13,-268.934 146.026,-270.884 148.922,-272.834 151.811,-274.778 154.686,-276.713 157.538,-278.633 160.36,-280.534 163.147,-282.41 165.889,-284.256 168.58,-286.067 171.213,-287.84 173.78,-289.568 175.913,-286.184"/>
</g>
<!-- texttable&#45;&gt;README -->
<g id="edge24" class="edge"><title>texttable&#45;&gt;README</title>
<polygon fill="#a3d2ca" stroke="none" stroke-width="4" points="204,-287.697 203.907,-286.047 203.812,-284.355 203.715,-282.627 203.616,-280.866 203.516,-279.078 203.414,-277.267 203.311,-275.438 203.208,-273.595 203.104,-271.743 202.999,-269.886 202.895,-268.03 202.791,-266.179 202.687,-264.337 202.585,-262.51 202.483,-260.701 202.383,-258.916 202.284,-257.159 202.187,-255.435 202.092,-253.749 202,-252.104 202,-252.104 201.908,-253.749 201.813,-255.435 201.716,-257.159 201.617,-258.916 201.517,-260.701 201.415,-262.51 201.313,-264.337 201.209,-266.179 201.105,-268.03 201.001,-269.886 200.896,-271.743 200.792,-273.595 200.689,-275.438 200.586,-277.267 200.484,-279.078 200.384,-280.866 200.285,-282.627 200.188,-284.355 200.093,-286.047 200,-287.697 204,-287.697"/>
</g>
<!-- texttable&#45;&gt;example -->
<g id="edge25" class="edge"><title>texttable&#45;&gt;example</title>
<polygon fill="#a3d2ca" stroke="none" stroke-width="4" points="227.136,-289.504 229.392,-287.778 231.706,-286.009 234.071,-284.201 236.481,-282.358 238.93,-280.485 241.411,-278.588 243.918,-276.671 246.444,-274.74 248.983,-272.798 251.529,-270.852 254.074,-268.905 256.614,-266.963 259.141,-265.031 261.648,-263.114 264.131,-261.216 266.581,-259.342 268.993,-257.498 271.36,-255.688 273.676,-253.917 275.934,-252.19 275.934,-252.19 273.568,-253.766 271.142,-255.383 268.662,-257.035 266.135,-258.718 263.568,-260.428 260.968,-262.161 258.341,-263.911 255.693,-265.674 253.033,-267.447 250.366,-269.224 247.699,-271 245.039,-272.773 242.392,-274.536 239.766,-276.285 237.167,-278.017 234.602,-279.726 232.076,-281.408 229.599,-283.059 227.175,-284.674 224.811,-286.249 227.136,-289.504"/>
</g>
<!-- python&#45;texttable -->
<g id="node6" class="node"><title>python&#45;texttable</title>
<polygon fill="white" stroke="#dfe0df" points="333.5,-396 228.5,-396 228.5,-360 333.5,-360 333.5,-396"/>
<text text-anchor="middle" x="281" y="-374.3" font-family="Times,serif" font-size="14.00">python&#45;texttable</text>
</g>
<!-- python&#45;texttable&#45;&gt;test_texttable -->
<g id="edge18" class="edge"><title>python&#45;texttable&#45;&gt;test_texttable</title>
<polygon fill="#dfe0df" stroke="none" stroke-width="4" points="229.072,-358.312 225.719,-357.032 222.335,-355.705 218.917,-354.328 215.471,-352.901 212.004,-351.423 208.522,-349.895 205.031,-348.317 201.538,-346.687 198.048,-345.007 194.568,-343.276 191.104,-341.493 187.663,-339.659 184.249,-337.774 180.871,-335.838 177.533,-333.849 174.243,-331.809 171.006,-329.717 167.828,-327.573 164.716,-325.378 161.678,-323.131 157.786,-320.074 153.956,-316.859 150.19,-313.5 146.495,-310.017 142.874,-306.427 139.334,-302.748 135.878,-298.999 132.513,-295.198 129.242,-291.364 126.071,-287.513 123.004,-283.665 120.046,-279.838 117.203,-276.049 114.477,-272.318 111.876,-268.661 109.402,-265.098 107.061,-261.646 104.857,-258.324 102.795,-255.15 100.88,-252.141 100.88,-252.141 102.724,-255.194 104.712,-258.417 106.838,-261.792 109.1,-265.3 111.492,-268.924 114.011,-272.646 116.653,-276.446 119.413,-280.309 122.287,-284.214 125.272,-288.145 128.364,-292.082 131.557,-296.009 134.849,-299.907 138.236,-303.758 141.713,-307.545 145.276,-311.248 148.923,-314.85 152.649,-318.334 156.451,-321.68 160.322,-324.869 163.351,-327.221 166.451,-329.519 169.618,-331.765 172.846,-333.96 176.127,-336.102 179.457,-338.193 182.828,-340.232 186.235,-342.219 189.671,-344.154 193.129,-346.038 196.605,-347.869 200.091,-349.65 203.581,-351.378 207.07,-353.055 210.55,-354.681 214.015,-356.254 217.46,-357.777 220.879,-359.248 224.264,-360.667 227.601,-362.032 229.072,-358.312"/>
</g>
<!-- python&#45;texttable&#45;&gt;README -->
<g id="edge19" class="edge"><title>python&#45;texttable&#45;&gt;README</title>
<polygon fill="#dfe0df" stroke="none" stroke-width="4" points="276.671,-358.985 275.552,-356.161 274.354,-353.178 273.081,-350.053 271.738,-346.799 270.324,-343.429 268.845,-339.956 267.302,-336.392 265.697,-332.751 264.034,-329.044 262.315,-325.285 260.542,-321.486 258.719,-317.661 256.848,-313.822 254.932,-309.982 252.972,-306.153 250.973,-302.349 248.936,-298.582 246.864,-294.866 244.759,-291.212 242.626,-287.634 241.434,-285.701 240.208,-283.765 238.949,-281.829 237.662,-279.894 236.35,-277.964 235.016,-276.041 233.664,-274.129 232.297,-272.229 230.92,-270.346 229.534,-268.481 228.145,-266.638 226.754,-264.819 225.367,-263.027 223.986,-261.265 222.615,-259.536 221.257,-257.842 219.915,-256.187 218.595,-254.573 217.298,-253.004 216.028,-251.481 216.028,-251.481 217.248,-253.044 218.493,-254.654 219.761,-256.309 221.047,-258.006 222.348,-259.741 223.662,-261.512 224.984,-263.316 226.311,-265.149 227.639,-267.009 228.966,-268.892 230.287,-270.796 231.6,-272.718 232.901,-274.655 234.185,-276.603 235.451,-278.56 236.695,-280.522 237.912,-282.487 239.1,-284.451 240.256,-286.412 241.374,-288.366 243.38,-291.99 245.354,-295.689 247.294,-299.45 249.198,-303.259 251.063,-307.105 252.888,-310.974 254.67,-314.853 256.407,-318.73 258.097,-322.592 259.737,-326.426 261.325,-330.219 262.86,-333.958 264.338,-337.63 265.758,-341.224 267.118,-344.724 268.414,-348.12 269.646,-351.398 270.81,-354.545 271.905,-357.548 272.929,-360.399 276.671,-358.985"/>
</g>
<!-- python&#45;texttable&#45;&gt;example -->
<g id="edge20" class="edge"><title>python&#45;texttable&#45;&gt;example</title>
<polygon fill="#dfe0df" stroke="none" stroke-width="4" points="285.274,-360.137 285.768,-355.845 286.302,-351.205 286.872,-346.255 287.473,-341.034 288.101,-335.58 288.751,-329.933 289.419,-324.13 290.1,-318.21 290.791,-312.213 291.485,-306.177 292.18,-300.141 292.871,-294.143 293.552,-288.222 294.22,-282.418 294.871,-276.767 295.499,-271.31 296.1,-266.085 296.671,-261.131 297.205,-256.486 297.7,-252.189 297.7,-252.189 297.048,-256.465 296.342,-261.087 295.59,-266.017 294.797,-271.216 293.968,-276.646 293.11,-282.269 292.229,-288.045 291.33,-293.937 290.419,-299.905 289.503,-305.912 288.586,-311.918 287.676,-317.886 286.777,-323.776 285.896,-329.55 285.038,-335.17 284.21,-340.597 283.417,-345.793 282.666,-350.719 281.961,-355.336 281.31,-359.606 285.274,-360.137"/>
</g>
<!-- python&#45;texttable&#45;&gt;setup -->
<g id="edge21" class="edge"><title>python&#45;texttable&#45;&gt;setup</title>
<polygon fill="#dfe0df" stroke="none" stroke-width="4" points="300.667,-361.15 302.347,-359.432 304.07,-357.672 305.83,-355.873 307.623,-354.041 309.445,-352.179 311.289,-350.294 313.152,-348.39 315.03,-346.472 316.916,-344.544 318.807,-342.612 320.697,-340.68 322.583,-338.753 324.459,-336.837 326.32,-334.935 328.162,-333.052 329.98,-331.194 331.77,-329.366 333.526,-327.571 335.243,-325.816 336.918,-324.104 336.918,-324.104 335.116,-325.682 333.268,-327.299 331.379,-328.953 329.454,-330.638 327.498,-332.35 325.516,-334.085 323.514,-335.838 321.496,-337.604 319.467,-339.38 317.434,-341.16 315.399,-342.941 313.37,-344.717 311.35,-346.485 309.346,-348.24 307.361,-349.977 305.402,-351.692 303.473,-353.381 301.579,-355.039 299.726,-356.661 297.918,-358.244 300.667,-361.15"/>
</g>
<!-- python&#45;texttable&#45;&gt;texttable -->
<g id="edge22" class="edge"><title>python&#45;texttable&#45;&gt;texttable</title>
<polygon fill="#dfe0df" stroke="none" stroke-width="4" points="262.798,-358.2 260.875,-356.619 258.903,-354.999 256.888,-353.343 254.835,-351.657 252.751,-349.944 250.639,-348.209 248.507,-346.456 246.358,-344.691 244.199,-342.917 242.034,-341.138 239.87,-339.36 237.712,-337.587 235.565,-335.823 233.435,-334.072 231.326,-332.34 229.245,-330.63 227.197,-328.947 225.187,-327.295 223.221,-325.68 221.303,-324.104 221.303,-324.104 223.098,-325.818 224.939,-327.575 226.82,-329.372 228.737,-331.203 230.685,-333.063 232.659,-334.947 234.653,-336.852 236.663,-338.771 238.683,-340.7 240.709,-342.634 242.735,-344.569 244.756,-346.499 246.767,-348.419 248.764,-350.326 250.74,-352.213 252.692,-354.076 254.613,-355.911 256.499,-357.712 258.345,-359.474 260.146,-361.194 262.798,-358.2"/>
</g>
<!-- python&#45;texttable&#45;&gt;python&#45;texttable -->
<g id="edge26" class="edge"><title>python&#45;texttable&#45;&gt;python&#45;texttable</title>
<polygon fill="#1687a7" stroke="none" stroke-width="8" points="334.189,-394.896 335.778,-394.518 337.378,-394.087 338.928,-393.612 340.422,-393.093 341.86,-392.528 343.237,-391.917 344.55,-391.259 345.797,-390.551 346.973,-389.793 348.074,-388.983 349.096,-388.118 350.032,-387.197 350.875,-386.218 351.617,-385.182 352.25,-384.091 352.764,-382.947 353.152,-381.758 353.406,-380.532 353.523,-379.277 353.503,-378 353.349,-376.742 353.068,-375.542 352.666,-374.406 352.149,-373.339 351.526,-372.344 350.806,-371.423 349.996,-370.575 349.105,-369.798 348.139,-369.089 347.102,-368.445 345.998,-367.863 344.832,-367.34 343.605,-366.874 342.322,-366.462 340.984,-366.103 339.595,-365.795 338.156,-365.537 336.672,-365.329 335.144,-365.169 333.575,-365.057 333.575,-365.057 335.1,-365.425 336.568,-365.831 337.976,-366.274 339.32,-366.753 340.596,-367.268 341.801,-367.818 342.929,-368.4 343.978,-369.013 344.943,-369.656 345.821,-370.325 346.609,-371.019 347.303,-371.733 347.902,-372.465 348.406,-373.211 348.815,-373.97 349.131,-374.741 349.357,-375.525 349.493,-376.326 349.54,-377.149 349.497,-378 349.366,-378.832 349.155,-379.6 348.871,-380.311 348.516,-380.973 348.091,-381.596 347.595,-382.184 347.024,-382.743 346.376,-383.273 345.651,-383.774 344.849,-384.247 343.968,-384.687 343.013,-385.095 341.984,-385.468 340.886,-385.804 339.721,-386.101 338.492,-386.359 337.204,-386.577 335.861,-386.754 334.466,-386.888 332.962,-386.99 334.189,-394.896"/>
</g>
<!-- python&#45;texttable..git -->
<g id="node7" class="node"><title>python&#45;texttable..git</title>
<polygon fill="white" stroke="#dfe0df" points="847.5,-324 720.5,-324 720.5,-288 847.5,-288 847.5,-324"/>
<text text-anchor="middle" x="784" y="-302.3" font-family="Times,serif" font-size="14.00">python&#45;texttable..git</text>
</g>
<!-- python&#45;texttable&#45;&gt;python&#45;texttable..git -->
<g id="edge1" class="edge"><title>python&#45;texttable&#45;&gt;python&#45;texttable..git</title>
<polygon fill="#dfe0de" stroke="none" stroke-width="4" points="334.155,-371.622 348.85,-369.5 364.897,-367.183 382.154,-364.691 400.475,-362.046 419.716,-359.268 439.731,-356.378 460.378,-353.396 481.511,-350.345 502.986,-347.244 524.659,-344.115 546.385,-340.978 568.019,-337.854 589.417,-334.764 610.435,-331.729 630.928,-328.77 650.752,-325.908 669.762,-323.163 687.814,-320.556 704.763,-318.109 720.465,-315.842 720.465,-315.842 704.74,-317.948 687.767,-320.222 669.689,-322.643 650.652,-325.193 630.8,-327.852 610.278,-330.601 589.23,-333.42 567.801,-336.29 546.136,-339.192 524.38,-342.107 502.676,-345.014 481.17,-347.894 460.007,-350.729 439.331,-353.498 419.286,-356.183 400.018,-358.764 381.671,-361.222 364.39,-363.536 348.319,-365.689 333.603,-367.66 334.155,-371.622"/>
</g>
<!-- python&#45;texttable..git.logs -->
<g id="node8" class="node"><title>python&#45;texttable..git.logs</title>
<polygon fill="white" stroke="#dfe0df" points="1039.5,-252 886.5,-252 886.5,-216 1039.5,-216 1039.5,-252"/>
<text text-anchor="middle" x="963" y="-230.3" font-family="Times,serif" font-size="14.00">python&#45;texttable..git.logs</text>
</g>
<!-- python&#45;texttable..git&#45;&gt;python&#45;texttable..git.logs -->
<g id="edge2" class="edge"><title>python&#45;texttable..git&#45;&gt;python&#45;texttable..git.logs</title>
<polygon fill="#dfe0de" stroke="none" stroke-width="4" points="828.517,-289.739 832.718,-287.997 837.027,-286.21 841.432,-284.383 845.921,-282.521 850.482,-280.63 855.103,-278.713 859.772,-276.777 864.477,-274.826 869.205,-272.865 873.946,-270.899 878.686,-268.934 883.414,-266.973 888.117,-265.022 892.785,-263.087 897.404,-261.171 901.963,-259.281 906.449,-257.42 910.851,-255.594 915.157,-253.809 919.354,-252.068 919.354,-252.068 915.089,-253.637 910.715,-255.246 906.242,-256.891 901.684,-258.567 897.052,-260.271 892.359,-261.997 887.616,-263.741 882.837,-265.499 878.034,-267.266 873.217,-269.037 868.401,-270.808 863.597,-272.576 858.816,-274.334 854.073,-276.078 849.378,-277.805 844.743,-279.51 840.182,-281.187 835.707,-282.833 831.328,-284.444 827.06,-286.013 828.517,-289.739"/>
</g>
<!-- python&#45;texttable..git.info -->
<g id="node13" class="node"><title>python&#45;texttable..git.info</title>
<polygon fill="white" stroke="#dfe0df" points="1210,-252 1058,-252 1058,-216 1210,-216 1210,-252"/>
<text text-anchor="middle" x="1134" y="-230.3" font-family="Times,serif" font-size="14.00">python&#45;texttable..git.info</text>
</g>
<!-- python&#45;texttable..git&#45;&gt;python&#45;texttable..git.info -->
<g id="edge7" class="edge"><title>python&#45;texttable..git&#45;&gt;python&#45;texttable..git.info</title>
<polygon fill="#dfe0de" stroke="none" stroke-width="4" points="848.181,-294.203 857.247,-292.302 866.706,-290.318 876.517,-288.261 886.639,-286.138 897.033,-283.958 907.657,-281.73 918.47,-279.462 929.433,-277.163 940.505,-274.841 951.645,-272.504 962.811,-270.162 973.965,-267.823 985.065,-265.495 996.071,-263.187 1006.94,-260.907 1017.64,-258.664 1028.12,-256.466 1038.34,-254.322 1048.26,-252.241 1057.85,-250.23 1057.85,-250.23 1048.23,-252.061 1038.26,-253.957 1028,-255.91 1017.49,-257.912 1006.75,-259.955 995.84,-262.031 984.793,-264.133 973.651,-266.254 962.456,-268.384 951.247,-270.517 940.066,-272.645 928.953,-274.76 917.949,-276.854 907.095,-278.92 896.431,-280.949 885.999,-282.935 875.838,-284.868 865.99,-286.743 856.496,-288.549 847.396,-290.281 848.181,-294.203"/>
</g>
<!-- python&#45;texttable..git.branches -->
<g id="node14" class="node"><title>python&#45;texttable..git.branches</title>
<polygon fill="white" stroke="#dfe0df" points="1407.5,-252 1228.5,-252 1228.5,-216 1407.5,-216 1407.5,-252"/>
<text text-anchor="middle" x="1318" y="-230.3" font-family="Times,serif" font-size="14.00">python&#45;texttable..git.branches</text>
</g>
<!-- python&#45;texttable..git&#45;&gt;python&#45;texttable..git.branches -->
<g id="edge8" class="edge"><title>python&#45;texttable..git&#45;&gt;python&#45;texttable..git.branches</title>
<polygon fill="#dfe0de" stroke="none" stroke-width="4" points="847.743,-300.231 860.976,-298.713 875.191,-297.068 890.316,-295.301 906.281,-293.42 923.018,-291.428 940.455,-289.332 958.523,-287.137 977.152,-284.847 996.272,-282.47 1015.81,-280.01 1035.71,-277.472 1055.88,-274.863 1076.27,-272.186 1096.79,-269.449 1117.39,-266.657 1137.99,-263.814 1158.52,-260.926 1178.92,-257.999 1199.1,-255.038 1219.01,-252.049 1219.47,-251.978 1219.94,-251.907 1220.41,-251.836 1220.88,-251.764 1221.34,-251.692 1221.81,-251.619 1222.28,-251.547 1222.76,-251.474 1223.23,-251.401 1223.7,-251.327 1224.17,-251.253 1224.65,-251.179 1225.12,-251.105 1225.59,-251.031 1226.07,-250.956 1226.54,-250.881 1227.02,-250.806 1227.5,-250.73 1227.98,-250.654 1228.45,-250.578 1228.45,-250.578 1227.97,-250.649 1227.5,-250.72 1227.02,-250.791 1226.54,-250.861 1226.07,-250.931 1225.59,-251.001 1225.11,-251.07 1224.64,-251.14 1224.17,-251.209 1223.69,-251.277 1223.22,-251.346 1222.75,-251.414 1222.27,-251.482 1221.8,-251.55 1221.33,-251.618 1220.86,-251.685 1220.39,-251.752 1219.93,-251.818 1219.46,-251.885 1218.99,-251.951 1199.06,-254.732 1178.84,-257.482 1158.42,-260.196 1137.86,-262.87 1117.24,-265.497 1096.61,-268.075 1076.06,-270.598 1055.66,-273.061 1035.46,-275.46 1015.54,-277.79 995.982,-280.046 976.842,-282.223 958.194,-284.318 940.107,-286.325 922.653,-288.239 905.901,-290.055 889.92,-291.77 874.781,-293.378 860.554,-294.875 847.308,-296.255 847.743,-300.231"/>
</g>
<!-- python&#45;texttable..git.refs -->
<g id="node15" class="node"><title>python&#45;texttable..git.refs</title>
<polygon fill="white" stroke="#dfe0df" points="500.5,-252 349.5,-252 349.5,-216 500.5,-216 500.5,-252"/>
<text text-anchor="middle" x="425" y="-230.3" font-family="Times,serif" font-size="14.00">python&#45;texttable..git.refs</text>
</g>
<!-- python&#45;texttable..git&#45;&gt;python&#45;texttable..git.refs -->
<g id="edge9" class="edge"><title>python&#45;texttable..git&#45;&gt;python&#45;texttable..git.refs</title>
<polygon fill="#dfe0de" stroke="none" stroke-width="4" points="720.686,-290.834 712.14,-289.271 703.214,-287.638 693.937,-285.938 684.336,-284.178 674.441,-282.363 664.28,-280.498 653.881,-278.586 643.272,-276.635 632.483,-274.648 621.542,-272.632 610.477,-270.59 599.316,-268.528 588.089,-266.45 576.823,-264.363 565.547,-262.272 554.29,-260.18 543.08,-258.093 531.945,-256.017 520.915,-253.956 510.017,-251.915 509.55,-251.828 509.083,-251.74 508.615,-251.653 508.145,-251.564 507.675,-251.476 507.205,-251.388 506.733,-251.299 506.261,-251.211 505.787,-251.122 505.314,-251.033 504.839,-250.943 504.364,-250.854 503.888,-250.764 503.411,-250.675 502.934,-250.585 502.456,-250.495 501.977,-250.405 501.498,-250.314 501.019,-250.224 500.539,-250.134 500.539,-250.134 501.017,-250.233 501.495,-250.331 501.972,-250.43 502.449,-250.529 502.925,-250.627 503.401,-250.726 503.876,-250.824 504.35,-250.922 504.824,-251.02 505.297,-251.118 505.769,-251.215 506.241,-251.313 506.711,-251.41 507.181,-251.507 507.65,-251.604 508.119,-251.7 508.586,-251.797 509.053,-251.893 509.519,-251.989 509.983,-252.085 520.843,-254.319 531.836,-256.577 542.932,-258.852 554.103,-261.139 565.321,-263.431 576.558,-265.724 587.785,-268.012 598.974,-270.29 610.096,-272.551 621.124,-274.79 632.028,-277.003 642.78,-279.182 653.352,-281.322 663.716,-283.419 673.843,-285.466 683.705,-287.458 693.273,-289.389 702.519,-291.254 711.414,-293.047 719.931,-294.762 720.686,-290.834"/>
</g>
<!-- python&#45;texttable..git.hooks -->
<g id="node20" class="node"><title>python&#45;texttable..git.hooks</title>
<polygon fill="white" stroke="#dfe0df" points="681.5,-252 518.5,-252 518.5,-216 681.5,-216 681.5,-252"/>
<text text-anchor="middle" x="600" y="-230.3" font-family="Times,serif" font-size="14.00">python&#45;texttable..git.hooks</text>
</g>
<!-- python&#45;texttable..git&#45;&gt;python&#45;texttable..git.hooks -->
<g id="edge14" class="edge"><title>python&#45;texttable..git&#45;&gt;python&#45;texttable..git.hooks</title>
<polygon fill="#dfe0de" stroke="none" stroke-width="4" points="739.7,-286.007 735.314,-284.437 730.815,-282.827 726.216,-281.181 721.529,-279.504 716.768,-277.8 711.943,-276.074 707.069,-274.329 702.157,-272.571 697.221,-270.805 692.272,-269.034 687.323,-267.263 682.387,-265.496 677.476,-263.739 672.604,-261.995 667.781,-260.269 663.022,-258.566 658.338,-256.89 653.742,-255.245 649.247,-253.636 644.865,-252.068 644.865,-252.068 649.181,-253.809 653.609,-255.595 658.136,-257.421 662.75,-259.282 667.438,-261.173 672.188,-263.089 676.987,-265.024 681.824,-266.975 686.686,-268.936 691.561,-270.903 696.436,-272.869 701.298,-274.83 706.136,-276.781 710.937,-278.718 715.689,-280.635 720.38,-282.526 724.996,-284.388 729.526,-286.216 733.957,-288.003 738.277,-289.745 739.7,-286.007"/>
</g>
<!-- python&#45;texttable..git.objects -->
<g id="node21" class="node"><title>python&#45;texttable..git.objects</title>
<polygon fill="white" stroke="#dfe0df" points="868.5,-252 699.5,-252 699.5,-216 868.5,-216 868.5,-252"/>
<text text-anchor="middle" x="784" y="-230.3" font-family="Times,serif" font-size="14.00">python&#45;texttable..git.objects</text>
</g>
<!-- python&#45;texttable..git&#45;&gt;python&#45;texttable..git.objects -->
<g id="edge15" class="edge"><title>python&#45;texttable..git&#45;&gt;python&#45;texttable..git.objects</title>
<polygon fill="#dfe0de" stroke="none" stroke-width="4" points="786,-287.697 785.907,-286.047 785.812,-284.355 785.715,-282.627 785.616,-280.866 785.516,-279.078 785.414,-277.267 785.311,-275.438 785.208,-273.595 785.104,-271.743 784.999,-269.886 784.895,-268.03 784.791,-266.179 784.687,-264.337 784.585,-262.51 784.483,-260.701 784.383,-258.916 784.284,-257.159 784.187,-255.435 784.092,-253.749 784,-252.104 784,-252.104 783.908,-253.749 783.813,-255.435 783.716,-257.159 783.617,-258.916 783.517,-260.701 783.415,-262.51 783.313,-264.337 783.209,-266.179 783.105,-268.03 783.001,-269.886 782.896,-271.743 782.792,-273.595 782.689,-275.438 782.586,-277.267 782.484,-279.078 782.384,-280.866 782.285,-282.627 782.188,-284.355 782.093,-286.047 782,-287.697 786,-287.697"/>
</g>
<!-- python&#45;texttable..git.logs.refs -->
<g id="node9" class="node"><title>python&#45;texttable..git.logs.refs</title>
<polygon fill="white" stroke="#dfe0df" points="1217.5,-180 1040.5,-180 1040.5,-144 1217.5,-144 1217.5,-180"/>
<text text-anchor="middle" x="1129" y="-158.3" font-family="Times,serif" font-size="14.00">python&#45;texttable..git.logs.refs</text>
</g>
<!-- python&#45;texttable..git.logs&#45;&gt;python&#45;texttable..git.logs.refs -->
<g id="edge3" class="edge"><title>python&#45;texttable..git.logs&#45;&gt;python&#45;texttable..git.logs.refs</title>
<polygon fill="#dfe0de" stroke="none" stroke-width="4" points="1004.39,-217.719 1008.28,-215.978 1012.27,-214.192 1016.35,-212.366 1020.51,-210.505 1024.73,-208.615 1029.01,-206.699 1033.34,-204.764 1037.69,-202.814 1042.07,-200.854 1046.46,-198.889 1050.85,-196.925 1055.23,-194.965 1059.59,-193.015 1063.91,-191.081 1068.19,-189.166 1072.41,-187.277 1076.57,-185.417 1080.65,-183.593 1084.64,-181.808 1088.52,-180.068 1088.52,-180.068 1084.56,-181.638 1080.5,-183.248 1076.35,-184.894 1072.12,-186.571 1067.82,-188.276 1063.46,-190.003 1059.06,-191.748 1054.62,-193.507 1050.16,-195.275 1045.69,-197.047 1041.22,-198.819 1036.75,-200.587 1032.32,-202.347 1027.91,-204.092 1023.55,-205.82 1019.25,-207.526 1015.01,-209.204 1010.86,-210.851 1006.79,-212.462 1002.83,-214.033 1004.39,-217.719"/>
</g>
<!-- python&#45;texttable..git.logs.refs.remotes -->
<g id="node10" class="node"><title>python&#45;texttable..git.logs.refs.remotes</title>
<polygon fill="white" stroke="#dfe0df" points="1123,-108 899,-108 899,-72 1123,-72 1123,-108"/>
<text text-anchor="middle" x="1011" y="-86.3" font-family="Times,serif" font-size="14.00">python&#45;texttable..git.logs.refs.remotes</text>
</g>
<!-- python&#45;texttable..git.logs.refs&#45;&gt;python&#45;texttable..git.logs.refs.remotes -->
<g id="edge4" class="edge"><title>python&#45;texttable..git.logs.refs&#45;&gt;python&#45;texttable..git.logs.refs.remotes</title>
<polygon fill="#dfe0de" stroke="none" stroke-width="4" points="1101.15,-142.156 1098.33,-140.586 1095.43,-138.975 1092.46,-137.329 1089.44,-135.651 1086.37,-133.947 1083.26,-132.22 1080.12,-130.475 1076.95,-128.717 1073.77,-126.949 1070.57,-125.177 1067.38,-123.405 1064.2,-121.638 1061.03,-119.879 1057.89,-118.134 1054.78,-116.406 1051.7,-114.7 1048.68,-113.022 1045.71,-111.374 1042.81,-109.762 1039.98,-108.19 1039.98,-108.19 1042.71,-109.921 1045.52,-111.696 1048.39,-113.511 1051.31,-115.36 1054.28,-117.238 1057.29,-119.141 1060.33,-121.063 1063.39,-123 1066.47,-124.946 1069.55,-126.898 1072.64,-128.849 1075.72,-130.796 1078.78,-132.732 1081.81,-134.654 1084.82,-136.555 1087.79,-138.433 1090.71,-140.28 1093.58,-142.093 1096.38,-143.867 1099.11,-145.596 1101.15,-142.156"/>
</g>
<!-- python&#45;texttable..git.logs.refs.heads -->
<g id="node12" class="node"><title>python&#45;texttable..git.logs.refs.heads</title>
<polygon fill="white" stroke="#dfe0df" points="1353,-108 1141,-108 1141,-72 1353,-72 1353,-108"/>
<text text-anchor="middle" x="1247" y="-86.3" font-family="Times,serif" font-size="14.00">python&#45;texttable..git.logs.refs.heads</text>
</g>
<!-- python&#45;texttable..git.logs.refs&#45;&gt;python&#45;texttable..git.logs.refs.heads -->
<g id="edge6" class="edge"><title>python&#45;texttable..git.logs.refs&#45;&gt;python&#45;texttable..git.logs.refs.heads</title>
<polygon fill="#dfe0de" stroke="none" stroke-width="4" points="1158.89,-145.596 1161.62,-143.867 1164.42,-142.093 1167.29,-140.28 1170.21,-138.433 1173.18,-136.555 1176.19,-134.654 1179.22,-132.732 1182.28,-130.796 1185.36,-128.849 1188.45,-126.898 1191.53,-124.946 1194.61,-123 1197.67,-121.063 1200.71,-119.141 1203.72,-117.238 1206.69,-115.36 1209.61,-113.511 1212.48,-111.696 1215.29,-109.921 1218.02,-108.19 1218.02,-108.19 1215.19,-109.762 1212.29,-111.374 1209.32,-113.022 1206.3,-114.7 1203.22,-116.406 1200.11,-118.134 1196.97,-119.879 1193.8,-121.638 1190.62,-123.405 1187.43,-125.177 1184.23,-126.949 1181.05,-128.717 1177.88,-130.475 1174.74,-132.22 1171.63,-133.947 1168.56,-135.651 1165.54,-137.329 1162.57,-138.975 1159.67,-140.586 1156.85,-142.156 1158.89,-145.596"/>
</g>
<!-- python&#45;texttable..git.logs.refs.remotes.origin -->
<g id="node11" class="node"><title>python&#45;texttable..git.logs.refs.remotes.origin</title>
<polygon fill="white" stroke="#dfe0df" points="1141,-36 881,-36 881,-0 1141,-0 1141,-36"/>
<text text-anchor="middle" x="1011" y="-14.3" font-family="Times,serif" font-size="14.00">python&#45;texttable..git.logs.refs.remotes.origin</text>
</g>
<!-- python&#45;texttable..git.logs.refs.remotes&#45;&gt;python&#45;texttable..git.logs.refs.remotes.origin -->
<g id="edge5" class="edge"><title>python&#45;texttable..git.logs.refs.remotes&#45;&gt;python&#45;texttable..git.logs.refs.remotes.origin</title>
<polygon fill="#dfe0de" stroke="none" stroke-width="4" points="1013,-71.6966 1012.91,-70.0468 1012.81,-68.3553 1012.72,-66.627 1012.62,-64.8665 1012.52,-63.0783 1012.41,-61.2672 1012.31,-59.4378 1012.21,-57.5948 1012.1,-55.7427 1012,-53.8862 1011.89,-52.0301 1011.79,-50.1789 1011.69,-48.3372 1011.58,-46.5098 1011.48,-44.7013 1011.38,-42.9163 1011.28,-41.1594 1011.19,-39.4354 1011.09,-37.7488 1011,-36.1043 1011,-36.1043 1010.91,-37.7488 1010.81,-39.4354 1010.72,-41.1594 1010.62,-42.9163 1010.52,-44.7013 1010.42,-46.5098 1010.31,-48.3372 1010.21,-50.1789 1010.11,-52.0301 1010,-53.8862 1009.9,-55.7427 1009.79,-57.5948 1009.69,-59.4378 1009.59,-61.2672 1009.48,-63.0783 1009.38,-64.8665 1009.28,-66.627 1009.19,-68.3553 1009.09,-70.0468 1009,-71.6966 1013,-71.6966"/>
</g>
<!-- python&#45;texttable..git.refs.remotes -->
<g id="node16" class="node"><title>python&#45;texttable..git.refs.remotes</title>
<polygon fill="white" stroke="#dfe0df" points="595,-180 397,-180 397,-144 595,-144 595,-180"/>
<text text-anchor="middle" x="496" y="-158.3" font-family="Times,serif" font-size="14.00">python&#45;texttable..git.refs.remotes</text>
</g>
<!-- python&#45;texttable..git.refs&#45;&gt;python&#45;texttable..git.refs.remotes -->
<g id="edge10" class="edge"><title>python&#45;texttable..git.refs&#45;&gt;python&#45;texttable..git.refs.remotes</title>
<polygon fill="#dfe0de" stroke="none" stroke-width="4" points="443.955,-217.121 445.563,-215.405 447.212,-213.646 448.897,-211.848 450.613,-210.017 452.356,-208.158 454.122,-206.274 455.905,-204.372 457.702,-202.455 459.507,-200.529 461.317,-198.598 463.126,-196.667 464.931,-194.742 466.726,-192.827 468.508,-190.926 470.271,-189.045 472.011,-187.189 473.723,-185.362 475.404,-183.569 477.048,-181.815 478.651,-180.104 478.651,-180.104 476.918,-181.683 475.141,-183.302 473.325,-184.957 471.473,-186.644 469.592,-188.357 467.687,-190.093 465.761,-191.848 463.82,-193.616 461.87,-195.393 459.914,-197.175 457.958,-198.957 456.006,-200.735 454.064,-202.504 452.136,-204.26 450.228,-205.999 448.344,-207.716 446.488,-209.406 444.667,-211.065 442.885,-212.689 441.146,-214.272 443.955,-217.121"/>
</g>
<!-- python&#45;texttable..git.refs.tags -->
<g id="node18" class="node"><title>python&#45;texttable..git.refs.tags</title>
<polygon fill="white" stroke="#dfe0df" points="176,-180 1.42109e-14,-180 1.42109e-14,-144 176,-144 176,-180"/>
<text text-anchor="middle" x="88" y="-158.3" font-family="Times,serif" font-size="14.00">python&#45;texttable..git.refs.tags</text>
</g>
<!-- python&#45;texttable..git.refs&#45;&gt;python&#45;texttable..git.refs.tags -->
<g id="edge12" class="edge"><title>python&#45;texttable..git.refs&#45;&gt;python&#45;texttable..git.refs.tags</title>
<polygon fill="#dfe0de" stroke="none" stroke-width="4" points="349.777,-215.332 341.623,-213.731 333.223,-212.082 324.603,-210.389 315.79,-208.659 306.81,-206.895 297.69,-205.104 288.454,-203.291 279.13,-201.46 269.744,-199.617 260.321,-197.767 250.888,-195.914 241.472,-194.065 232.097,-192.225 222.791,-190.397 213.58,-188.588 204.49,-186.803 195.546,-185.047 186.776,-183.325 178.205,-181.642 169.859,-180.003 169.859,-180.003 178.167,-181.824 186.699,-183.693 195.43,-185.606 204.333,-187.557 213.382,-189.54 222.552,-191.549 231.816,-193.579 241.148,-195.624 250.522,-197.678 259.912,-199.736 269.292,-201.791 278.636,-203.839 287.918,-205.872 297.112,-207.887 306.191,-209.876 315.13,-211.835 323.903,-213.758 332.484,-215.638 340.846,-217.47 348.964,-219.249 349.777,-215.332"/>
</g>
<!-- python&#45;texttable..git.refs.heads -->
<g id="node19" class="node"><title>python&#45;texttable..git.refs.heads</title>
<polygon fill="white" stroke="#dfe0df" points="378.5,-180 193.5,-180 193.5,-144 378.5,-144 378.5,-180"/>
<text text-anchor="middle" x="286" y="-158.3" font-family="Times,serif" font-size="14.00">python&#45;texttable..git.refs.heads</text>
</g>
<!-- python&#45;texttable..git.refs&#45;&gt;python&#45;texttable..git.refs.heads -->
<g id="edge13" class="edge"><title>python&#45;texttable..git.refs&#45;&gt;python&#45;texttable..git.refs.heads</title>
<polygon fill="#dfe0de" stroke="none" stroke-width="4" points="391.896,-214.09 388.579,-212.523 385.176,-210.915 381.698,-209.272 378.153,-207.598 374.552,-205.896 370.904,-204.173 367.217,-202.431 363.502,-200.677 359.768,-198.913 356.025,-197.144 352.281,-195.376 348.546,-193.612 344.831,-191.856 341.143,-190.114 337.493,-188.39 333.889,-186.688 330.342,-185.012 326.861,-183.368 323.455,-181.759 320.134,-180.19 320.134,-180.19 323.372,-181.924 326.692,-183.703 330.086,-185.52 333.544,-187.372 337.057,-189.254 340.616,-191.16 344.211,-193.086 347.834,-195.026 351.475,-196.976 355.125,-198.931 358.775,-200.886 362.415,-202.836 366.037,-204.775 369.631,-206.7 373.188,-208.606 376.699,-210.486 380.154,-212.337 383.545,-214.153 386.863,-215.93 390.097,-217.662 391.896,-214.09"/>
</g>
<!-- python&#45;texttable..git.refs.remotes.origin -->
<g id="node17" class="node"><title>python&#45;texttable..git.refs.remotes.origin</title>
<polygon fill="white" stroke="#dfe0df" points="613,-108 379,-108 379,-72 613,-72 613,-108"/>
<text text-anchor="middle" x="496" y="-86.3" font-family="Times,serif" font-size="14.00">python&#45;texttable..git.refs.remotes.origin</text>
</g>
<!-- python&#45;texttable..git.refs.remotes&#45;&gt;python&#45;texttable..git.refs.remotes.origin -->
<g id="edge11" class="edge"><title>python&#45;texttable..git.refs.remotes&#45;&gt;python&#45;texttable..git.refs.remotes.origin</title>
<polygon fill="#dfe0de" stroke="none" stroke-width="4" points="498,-143.697 497.907,-142.047 497.812,-140.355 497.715,-138.627 497.616,-136.866 497.516,-135.078 497.414,-133.267 497.311,-131.438 497.208,-129.595 497.104,-127.743 496.999,-125.886 496.895,-124.03 496.791,-122.179 496.687,-120.337 496.585,-118.51 496.483,-116.701 496.383,-114.916 496.284,-113.159 496.187,-111.435 496.092,-109.749 496,-108.104 496,-108.104 495.908,-109.749 495.813,-111.435 495.716,-113.159 495.617,-114.916 495.517,-116.701 495.415,-118.51 495.313,-120.337 495.209,-122.179 495.105,-124.03 495.001,-125.886 494.896,-127.743 494.792,-129.595 494.689,-131.438 494.586,-133.267 494.484,-135.078 494.384,-136.866 494.285,-138.627 494.188,-140.355 494.093,-142.047 494,-143.697 498,-143.697"/>
</g>
<!-- python&#45;texttable..git.objects.pack -->
<g id="node22" class="node"><title>python&#45;texttable..git.objects.pack</title>
<polygon fill="white" stroke="#dfe0df" points="811,-180 613,-180 613,-144 811,-144 811,-180"/>
<text text-anchor="middle" x="712" y="-158.3" font-family="Times,serif" font-size="14.00">python&#45;texttable..git.objects.pack</text>
</g>
<!-- python&#45;texttable..git.objects&#45;&gt;python&#45;texttable..git.objects.pack -->
<g id="edge16" class="edge"><title>python&#45;texttable..git.objects&#45;&gt;python&#45;texttable..git.objects.pack</title>
<polygon fill="#dfe0de" stroke="none" stroke-width="4" points="767.596,-214.263 765.835,-212.679 764.029,-211.056 762.183,-209.397 760.304,-207.708 758.394,-205.992 756.461,-204.253 754.507,-202.498 752.539,-200.729 750.562,-198.951 748.58,-197.17 746.598,-195.388 744.621,-193.612 742.655,-191.844 740.703,-190.091 738.772,-188.355 736.866,-186.642 734.991,-184.956 733.15,-183.301 731.349,-181.683 729.593,-180.104 729.593,-180.104 731.22,-181.815 732.889,-183.57 734.595,-185.363 736.333,-187.191 738.099,-189.048 739.888,-190.929 741.696,-192.83 743.518,-194.746 745.35,-196.672 747.186,-198.603 749.023,-200.534 750.856,-202.461 752.679,-204.378 754.489,-206.281 756.281,-208.165 758.05,-210.025 759.792,-211.857 761.502,-213.655 763.176,-215.414 764.808,-217.131 767.596,-214.263"/>
</g>
<!-- python&#45;texttable..git.objects.info -->
<g id="node23" class="node"><title>python&#45;texttable..git.objects.info</title>
<polygon fill="white" stroke="#dfe0df" points="1023,-180 829,-180 829,-144 1023,-144 1023,-180"/>
<text text-anchor="middle" x="926" y="-158.3" font-family="Times,serif" font-size="14.00">python&#45;texttable..git.objects.info</text>
</g>
<!-- python&#45;texttable..git.objects&#45;&gt;python&#45;texttable..git.objects.info -->
<g id="edge17" class="edge"><title>python&#45;texttable..git.objects&#45;&gt;python&#45;texttable..git.objects.info</title>
<polygon fill="#dfe0de" stroke="none" stroke-width="4" points="819.621,-217.67 822.927,-215.937 826.318,-214.16 829.784,-212.343 833.316,-210.492 836.904,-208.611 840.54,-206.706 844.213,-204.78 847.915,-202.84 851.636,-200.89 855.366,-198.935 859.096,-196.98 862.818,-195.029 866.52,-193.088 870.195,-191.162 873.832,-189.256 877.423,-187.374 880.957,-185.521 884.426,-183.703 887.82,-181.924 891.129,-180.19 891.129,-180.19 887.738,-181.758 884.26,-183.367 880.706,-185.011 877.084,-186.686 873.405,-188.388 869.677,-190.112 865.912,-191.854 862.117,-193.609 858.304,-195.372 854.481,-197.14 850.659,-198.909 846.846,-200.672 843.053,-202.427 839.289,-204.168 835.563,-205.891 831.886,-207.592 828.267,-209.266 824.715,-210.908 821.24,-212.515 817.853,-214.082 819.621,-217.67"/>
</g>
</g>
</svg>
