<?xml version="1.0" encoding="UTF-8" standalone="no"?>
<!DOCTYPE svg PUBLIC "-//W3C//DTD SVG 1.1//EN"
 "http://www.w3.org/Graphics/SVG/1.1/DTD/svg11.dtd">
<!-- Generated by graphviz version 2.38.0 (20140413.2041)
 -->
<!-- Title: G Pages: 1 -->
<svg width="2837pt" height="404pt"
 viewBox="0.00 0.00 2837.00 404.00" xmlns="http://www.w3.org/2000/svg" xmlns:xlink="http://www.w3.org/1999/xlink">
<g id="graph0" class="graph" transform="scale(1 1) rotate(0) translate(4 400)">
<title>G</title>
<polygon fill="white" stroke="none" points="-4,4 -4,-400 2833,-400 2833,4 -4,4"/>
<!-- run_classifier -->
<g id="node1" class="node"><title>run_classifier</title>
<polygon fill="#ffb26b" stroke="#dfe0df" points="1713.5,-36 1623.5,-36 1623.5,-0 1713.5,-0 1713.5,-36"/>
<text text-anchor="middle" x="1668.5" y="-14.3" font-family="Times,serif" font-size="14.00">run_classifier</text>
</g>
<!-- utils -->
<g id="node2" class="node"><title>utils</title>
<polygon fill="#ffd56b" stroke="#dfe0df" points="1145.5,-108 1091.5,-108 1091.5,-72 1145.5,-72 1145.5,-108"/>
<text text-anchor="middle" x="1118.5" y="-86.3" font-family="Times,serif" font-size="14.00">utils</text>
</g>
<!-- utils&#45;&gt;run_classifier -->
<g id="edge59" class="edge"><title>utils&#45;&gt;run_classifier</title>
<polygon fill="#a3d2ca" stroke="none" stroke-width="4" points="1146.03,-87.5127 1160.65,-85.5895 1177.87,-83.326 1197.4,-80.7578 1218.97,-77.9202 1242.33,-74.8487 1267.2,-71.5786 1293.31,-68.1453 1320.39,-64.5844 1348.17,-60.931 1376.39,-57.2208 1404.76,-53.4891 1433.04,-49.7712 1460.93,-46.1027 1488.19,-42.5189 1514.53,-39.0552 1539.69,-35.747 1563.39,-32.6298 1585.37,-29.739 1605.37,-27.1099 1623.1,-24.778 1623.1,-24.778 1605.35,-26.9624 1585.33,-29.4252 1563.33,-32.1332 1539.6,-35.0533 1514.41,-38.1522 1488.05,-41.3968 1460.76,-44.7539 1432.84,-48.1904 1404.53,-51.6731 1376.12,-55.1688 1347.88,-58.6443 1320.07,-62.0666 1292.96,-65.4023 1266.82,-68.6184 1241.93,-71.6817 1218.55,-74.559 1196.94,-77.2171 1177.39,-79.6229 1160.16,-81.7431 1145.52,-83.5447 1146.03,-87.5127"/>
</g>
<!-- DFG -->
<g id="node10" class="node"><title>DFG</title>
<polygon fill="#ff7b54" stroke="#dfe0df" points="1145.5,-36 1091.5,-36 1091.5,-0 1145.5,-0 1145.5,-36"/>
<text text-anchor="middle" x="1118.5" y="-14.3" font-family="Times,serif" font-size="14.00">DFG</text>
</g>
<!-- utils&#45;&gt;DFG -->
<g id="edge61" class="edge"><title>utils&#45;&gt;DFG</title>
<polygon fill="#a3d2ca" stroke="none" stroke-width="4" points="1102.67,-71.1397 1102.11,-69.548 1101.61,-67.941 1101.15,-66.2889 1100.73,-64.597 1100.36,-62.8702 1100.04,-61.1135 1099.77,-59.3321 1099.55,-57.5307 1099.37,-55.7144 1099.25,-53.8879 1099.17,-52.0561 1099.15,-50.2237 1099.18,-48.3955 1099.25,-46.5762 1099.38,-44.7704 1099.56,-42.9827 1099.8,-41.2177 1100.08,-39.48 1100.42,-37.7741 1100.81,-36.1043 1100.81,-36.1043 1100.24,-37.7235 1099.71,-39.3907 1099.23,-41.1011 1098.8,-42.8498 1098.42,-44.6322 1098.08,-46.4434 1097.8,-48.2789 1097.56,-50.134 1097.38,-52.0041 1097.25,-53.8846 1097.17,-55.771 1097.14,-57.6588 1097.17,-59.5436 1097.24,-61.4209 1097.37,-63.2865 1097.56,-65.136 1097.79,-66.9651 1098.09,-68.7697 1098.44,-70.5455 1098.83,-72.2535 1102.67,-71.1397"/>
</g>
<!-- utils&#45;&gt;DFG -->
<g id="edge63" class="edge"><title>utils&#45;&gt;DFG</title>
<polygon fill="#a3d2ca" stroke="none" stroke-width="4" points="1114.58,-71.5042 1114.32,-69.875 1114.09,-68.2136 1113.87,-66.512 1113.66,-64.7752 1113.47,-63.0081 1113.29,-61.2156 1113.13,-59.4024 1112.99,-57.5733 1112.86,-55.7332 1112.75,-53.8868 1112.65,-52.0388 1112.58,-50.1938 1112.52,-48.3566 1112.47,-46.5319 1112.45,-44.7243 1112.44,-42.9384 1112.46,-41.1789 1112.49,-39.4503 1112.54,-37.7573 1112.6,-36.1043 1112.6,-36.1043 1112.35,-37.7403 1112.11,-39.4204 1111.89,-41.1399 1111.68,-42.8941 1111.48,-44.6783 1111.3,-46.4877 1111.14,-48.3178 1110.99,-50.1639 1110.86,-52.0214 1110.75,-53.8857 1110.65,-55.7521 1110.57,-57.6162 1110.51,-59.4733 1110.47,-61.3189 1110.44,-63.1485 1110.43,-64.9577 1110.45,-66.7421 1110.48,-68.4971 1110.53,-70.2186 1110.59,-71.889 1114.58,-71.5042"/>
</g>
<!-- utils&#45;&gt;DFG -->
<g id="edge66" class="edge"><title>utils&#45;&gt;DFG</title>
<polygon fill="#a3d2ca" stroke="none" stroke-width="4" points="1126.41,-71.889 1126.47,-70.2186 1126.52,-68.4971 1126.55,-66.7421 1126.57,-64.9577 1126.56,-63.1485 1126.53,-61.3189 1126.49,-59.4733 1126.43,-57.6162 1126.35,-55.7521 1126.25,-53.8857 1126.14,-52.0214 1126.01,-50.1639 1125.86,-48.3178 1125.7,-46.4877 1125.52,-44.6783 1125.32,-42.8941 1125.11,-41.1399 1124.89,-39.4204 1124.65,-37.7403 1124.4,-36.1043 1124.4,-36.1043 1124.46,-37.7573 1124.51,-39.4503 1124.54,-41.1789 1124.56,-42.9384 1124.55,-44.7243 1124.53,-46.5319 1124.48,-48.3566 1124.42,-50.1938 1124.35,-52.0388 1124.25,-53.8868 1124.14,-55.7332 1124.01,-57.5733 1123.87,-59.4024 1123.71,-61.2156 1123.53,-63.0081 1123.34,-64.7752 1123.13,-66.512 1122.91,-68.2136 1122.68,-69.875 1122.42,-71.5042 1126.41,-71.889"/>
</g>
<!-- utils&#45;&gt;DFG -->
<g id="edge69" class="edge"><title>utils&#45;&gt;DFG</title>
<polygon fill="#a3d2ca" stroke="none" stroke-width="4" points="1138.17,-72.2535 1138.56,-70.5455 1138.91,-68.7697 1139.21,-66.9651 1139.44,-65.136 1139.63,-63.2865 1139.76,-61.4209 1139.83,-59.5436 1139.86,-57.6588 1139.83,-55.771 1139.75,-53.8846 1139.62,-52.0041 1139.44,-50.134 1139.2,-48.2789 1138.92,-46.4434 1138.58,-44.6322 1138.2,-42.8498 1137.77,-41.1011 1137.29,-39.3907 1136.76,-37.7235 1136.19,-36.1043 1136.19,-36.1043 1136.58,-37.7741 1136.92,-39.48 1137.2,-41.2177 1137.44,-42.9827 1137.62,-44.7704 1137.75,-46.5762 1137.82,-48.3955 1137.85,-50.2237 1137.83,-52.0561 1137.75,-53.8879 1137.63,-55.7144 1137.45,-57.5307 1137.23,-59.3321 1136.96,-61.1135 1136.64,-62.8702 1136.27,-64.597 1135.85,-66.2889 1135.39,-67.941 1134.89,-69.548 1134.33,-71.1397 1138.17,-72.2535"/>
</g>
<!-- mrr -->
<g id="node3" class="node"><title>mrr</title>
<polygon fill="#ffd56b" stroke="#dfe0df" points="2250.5,-108 2196.5,-108 2196.5,-72 2250.5,-72 2250.5,-108"/>
<text text-anchor="middle" x="2223.5" y="-86.3" font-family="Times,serif" font-size="14.00">mrr</text>
</g>
<!-- README -->
<g id="node4" class="node"><title>README</title>
<polygon fill="#ff7b54" stroke="#dfe0df" points="2002.5,-108 1928.5,-108 1928.5,-72 2002.5,-72 2002.5,-108"/>
<text text-anchor="middle" x="1965.5" y="-86.3" font-family="Times,serif" font-size="14.00">README</text>
</g>
<!-- process_data -->
<g id="node5" class="node"><title>process_data</title>
<polygon fill="#ffd56b" stroke="#dfe0df" points="2354.5,-108 2268.5,-108 2268.5,-72 2354.5,-72 2354.5,-108"/>
<text text-anchor="middle" x="2311.5" y="-86.3" font-family="Times,serif" font-size="14.00">process_data</text>
</g>
<!-- bleu -->
<g id="node6" class="node"><title>bleu</title>
<polygon fill="#ffd56b" stroke="#dfe0df" points="1861.5,-180 1807.5,-180 1807.5,-144 1861.5,-144 1861.5,-180"/>
<text text-anchor="middle" x="1834.5" y="-158.3" font-family="Times,serif" font-size="14.00">bleu</text>
</g>
<!-- run -->
<g id="node7" class="node"><title>run</title>
<polygon fill="#ff7b54" stroke="#dfe0df" points="1713.5,-108 1659.5,-108 1659.5,-72 1713.5,-72 1713.5,-108"/>
<text text-anchor="middle" x="1686.5" y="-86.3" font-family="Times,serif" font-size="14.00">run</text>
</g>
<!-- bleu&#45;&gt;run -->
<g id="edge65" class="edge"><title>bleu&#45;&gt;run</title>
<polygon fill="#a3d2ca" stroke="none" stroke-width="4" points="1808.16,-148.689 1804.02,-146.966 1799.69,-145.147 1795.2,-143.242 1790.56,-141.258 1785.8,-139.205 1780.94,-137.093 1775.99,-134.93 1770.98,-132.727 1765.92,-130.492 1760.85,-128.235 1755.78,-125.965 1750.72,-123.691 1745.71,-121.423 1740.76,-119.17 1735.9,-116.941 1731.13,-114.746 1726.49,-112.593 1722,-110.492 1717.67,-108.453 1713.52,-106.484 1713.52,-106.484 1717.59,-108.612 1721.84,-110.817 1726.25,-113.09 1730.81,-115.421 1735.48,-117.799 1740.26,-120.215 1745.12,-122.659 1750.05,-125.12 1755.01,-127.589 1760,-130.055 1764.98,-132.508 1769.95,-134.938 1774.88,-137.335 1779.74,-139.69 1784.53,-141.991 1789.22,-144.23 1793.79,-146.395 1798.21,-148.478 1802.48,-150.467 1806.56,-152.352 1808.16,-148.689"/>
</g>
<!-- bleu&#45;&gt;run -->
<g id="edge68" class="edge"><title>bleu&#45;&gt;run</title>
<polygon fill="#a3d2ca" stroke="none" stroke-width="4" points="1808.27,-143.675 1804.12,-141.707 1799.79,-139.667 1795.3,-137.567 1790.66,-135.416 1785.9,-133.222 1781.03,-130.995 1776.09,-128.744 1771.08,-126.479 1766.04,-124.208 1760.97,-121.941 1755.9,-119.686 1750.86,-117.454 1745.85,-115.253 1740.91,-113.093 1736.05,-110.983 1731.29,-108.932 1726.65,-106.949 1722.16,-105.044 1717.84,-103.226 1713.69,-101.503 1713.69,-101.503 1717.77,-103.384 1722.02,-105.368 1726.43,-107.445 1730.98,-109.604 1735.66,-111.837 1740.43,-114.132 1745.28,-116.48 1750.2,-118.871 1755.15,-121.295 1760.12,-123.742 1765.1,-126.201 1770.05,-128.663 1774.96,-131.118 1779.81,-133.555 1784.57,-135.965 1789.24,-138.338 1793.78,-140.663 1798.18,-142.931 1802.42,-145.131 1806.48,-147.254 1808.27,-143.675"/>
</g>
<!-- model -->
<g id="node8" class="node"><title>model</title>
<polygon fill="#ffd56b" stroke="#dfe0df" points="1713.5,-180 1659.5,-180 1659.5,-144 1713.5,-144 1713.5,-180"/>
<text text-anchor="middle" x="1686.5" y="-158.3" font-family="Times,serif" font-size="14.00">model</text>
</g>
<!-- model&#45;&gt;README -->
<g id="edge71" class="edge"><title>model&#45;&gt;README</title>
<polygon fill="#a3d2ca" stroke="none" stroke-width="4" points="1714.33,-150.85 1715.02,-150.574 1715.7,-150.3 1716.39,-150.027 1717.08,-149.756 1717.77,-149.487 1718.46,-149.22 1719.15,-148.955 1719.84,-148.692 1720.53,-148.431 1721.22,-148.174 1721.91,-147.919 1722.6,-147.667 1723.29,-147.418 1723.98,-147.172 1724.66,-146.93 1725.35,-146.692 1726.03,-146.458 1726.71,-146.227 1727.39,-146.001 1728.06,-145.781 1738.56,-142.433 1749.23,-139.169 1760.04,-135.99 1770.96,-132.899 1781.94,-129.898 1792.94,-126.989 1803.93,-124.175 1814.87,-121.457 1825.72,-118.839 1836.45,-116.322 1847.01,-113.909 1857.36,-111.601 1867.47,-109.402 1877.31,-107.312 1886.82,-105.336 1895.98,-103.473 1904.74,-101.728 1913.07,-100.101 1920.93,-98.5963 1928.28,-97.2147 1928.28,-97.2147 1920.91,-98.4632 1913.02,-99.826 1904.66,-101.302 1895.86,-102.889 1886.67,-104.585 1877.12,-106.391 1867.25,-108.303 1857.09,-110.32 1846.69,-112.441 1836.08,-114.665 1825.3,-116.99 1814.39,-119.414 1803.39,-121.936 1792.33,-124.555 1781.25,-127.27 1770.2,-130.078 1759.2,-132.978 1748.3,-135.97 1737.53,-139.051 1726.94,-142.219 1726.24,-142.435 1725.55,-142.654 1724.85,-142.877 1724.14,-143.104 1723.44,-143.334 1722.74,-143.568 1722.03,-143.806 1721.32,-144.047 1720.62,-144.291 1719.91,-144.538 1719.2,-144.787 1718.49,-145.039 1717.78,-145.294 1717.08,-145.55 1716.37,-145.809 1715.67,-146.07 1714.97,-146.332 1714.26,-146.596 1713.57,-146.862 1712.87,-147.127 1714.33,-150.85"/>
</g>
<!-- model&#45;&gt;run -->
<g id="edge60" class="edge"><title>model&#45;&gt;run</title>
<polygon fill="#a3d2ca" stroke="none" stroke-width="4" points="1664.7,-142.976 1663.99,-141.399 1663.35,-139.815 1662.77,-138.184 1662.26,-136.512 1661.81,-134.804 1661.42,-133.064 1661.09,-131.297 1660.83,-129.51 1660.63,-127.705 1660.5,-125.888 1660.44,-124.065 1660.44,-122.239 1660.51,-120.415 1660.64,-118.598 1660.85,-116.793 1661.12,-115.005 1661.47,-113.237 1661.88,-111.495 1662.36,-109.782 1662.92,-108.104 1662.92,-108.104 1662.18,-109.715 1661.51,-111.376 1660.9,-113.082 1660.36,-114.828 1659.88,-116.609 1659.47,-118.421 1659.13,-120.259 1658.85,-122.119 1658.64,-123.995 1658.5,-125.884 1658.43,-127.78 1658.43,-129.68 1658.49,-131.578 1658.63,-133.471 1658.84,-135.353 1659.12,-137.221 1659.48,-139.07 1659.91,-140.896 1660.41,-142.694 1660.97,-144.418 1664.7,-142.976"/>
</g>
<!-- model&#45;&gt;run -->
<g id="edge62" class="edge"><title>model&#45;&gt;run</title>
<polygon fill="#a3d2ca" stroke="none" stroke-width="4" points="1676.63,-143.317 1676.23,-141.707 1675.85,-140.075 1675.51,-138.399 1675.2,-136.685 1674.92,-134.939 1674.67,-133.164 1674.45,-131.367 1674.27,-129.552 1674.12,-127.724 1674,-125.887 1673.91,-124.047 1673.86,-122.209 1673.85,-120.376 1673.86,-118.554 1673.92,-116.747 1674,-114.961 1674.13,-113.198 1674.28,-111.465 1674.48,-109.766 1674.71,-108.104 1674.71,-108.104 1674.29,-109.732 1673.91,-111.406 1673.56,-113.12 1673.24,-114.872 1672.95,-116.655 1672.69,-118.466 1672.47,-120.298 1672.28,-122.149 1672.12,-124.013 1672,-125.885 1671.91,-127.762 1671.86,-129.638 1671.84,-131.509 1671.85,-133.37 1671.91,-135.218 1671.99,-137.048 1672.12,-138.855 1672.28,-140.636 1672.47,-142.386 1672.7,-144.076 1676.63,-143.317"/>
</g>
<!-- model&#45;&gt;run -->
<g id="edge64" class="edge"><title>model&#45;&gt;run</title>
<polygon fill="#a3d2ca" stroke="none" stroke-width="4" points="1688.5,-143.697 1688.41,-142.047 1688.31,-140.355 1688.22,-138.627 1688.12,-136.866 1688.02,-135.078 1687.91,-133.267 1687.81,-131.438 1687.71,-129.595 1687.6,-127.743 1687.5,-125.886 1687.39,-124.03 1687.29,-122.179 1687.19,-120.337 1687.08,-118.51 1686.98,-116.701 1686.88,-114.916 1686.78,-113.159 1686.69,-111.435 1686.59,-109.749 1686.5,-108.104 1686.5,-108.104 1686.41,-109.749 1686.31,-111.435 1686.22,-113.159 1686.12,-114.916 1686.02,-116.701 1685.92,-118.51 1685.81,-120.337 1685.71,-122.179 1685.61,-124.03 1685.5,-125.886 1685.4,-127.743 1685.29,-129.595 1685.19,-131.438 1685.09,-133.267 1684.98,-135.078 1684.88,-136.866 1684.78,-138.627 1684.69,-140.355 1684.59,-142.047 1684.5,-143.697 1688.5,-143.697"/>
</g>
<!-- model&#45;&gt;run -->
<g id="edge67" class="edge"><title>model&#45;&gt;run</title>
<polygon fill="#a3d2ca" stroke="none" stroke-width="4" points="1700.3,-144.076 1700.53,-142.386 1700.72,-140.636 1700.88,-138.855 1701.01,-137.048 1701.09,-135.218 1701.15,-133.37 1701.16,-131.509 1701.14,-129.638 1701.09,-127.762 1701,-125.885 1700.88,-124.013 1700.72,-122.149 1700.53,-120.298 1700.31,-118.466 1700.05,-116.655 1699.76,-114.872 1699.44,-113.12 1699.09,-111.406 1698.71,-109.732 1698.29,-108.104 1698.29,-108.104 1698.52,-109.766 1698.72,-111.465 1698.87,-113.198 1699,-114.961 1699.08,-116.747 1699.14,-118.554 1699.15,-120.376 1699.14,-122.209 1699.09,-124.047 1699,-125.887 1698.88,-127.724 1698.73,-129.552 1698.55,-131.367 1698.33,-133.164 1698.08,-134.939 1697.8,-136.685 1697.49,-138.399 1697.15,-140.075 1696.77,-141.707 1696.37,-143.317 1700.3,-144.076"/>
</g>
<!-- model&#45;&gt;run -->
<g id="edge70" class="edge"><title>model&#45;&gt;run</title>
<polygon fill="#a3d2ca" stroke="none" stroke-width="4" points="1712.03,-144.418 1712.59,-142.694 1713.09,-140.896 1713.52,-139.07 1713.88,-137.221 1714.16,-135.353 1714.37,-133.471 1714.51,-131.578 1714.57,-129.68 1714.57,-127.78 1714.5,-125.884 1714.36,-123.995 1714.15,-122.119 1713.87,-120.259 1713.53,-118.421 1713.12,-116.609 1712.64,-114.828 1712.1,-113.082 1711.49,-111.376 1710.82,-109.715 1710.08,-108.104 1710.08,-108.104 1710.64,-109.782 1711.12,-111.495 1711.53,-113.237 1711.88,-115.005 1712.15,-116.793 1712.36,-118.598 1712.49,-120.415 1712.56,-122.239 1712.56,-124.065 1712.5,-125.888 1712.37,-127.705 1712.17,-129.51 1711.91,-131.297 1711.58,-133.064 1711.19,-134.804 1710.74,-136.512 1710.23,-138.184 1709.65,-139.815 1709.01,-141.399 1708.3,-142.976 1712.03,-144.418"/>
</g>
<!-- NOTICE -->
<g id="node9" class="node"><title>NOTICE</title>
<polygon fill="#ffd56b" stroke="#dfe0df" points="2424.5,-324 2358.5,-324 2358.5,-288 2424.5,-288 2424.5,-324"/>
<text text-anchor="middle" x="2391.5" y="-302.3" font-family="Times,serif" font-size="14.00">NOTICE</text>
</g>
<!-- build -->
<g id="node11" class="node"><title>build</title>
<polygon fill="#ffb26b" stroke="#dfe0df" points="968.5,-108 914.5,-108 914.5,-72 968.5,-72 968.5,-108"/>
<text text-anchor="middle" x="941.5" y="-86.3" font-family="Times,serif" font-size="14.00">build</text>
</g>
<!-- evaluator -->
<g id="node12" class="node"><title>evaluator</title>
<polygon fill="#ffb26b" stroke="#dfe0df" points="192,-108 125,-108 125,-72 192,-72 192,-108"/>
<text text-anchor="middle" x="158.5" y="-86.3" font-family="Times,serif" font-size="14.00">evaluator</text>
</g>
<!-- CODE_OF_CONDUCT -->
<g id="node13" class="node"><title>CODE_OF_CONDUCT</title>
<polygon fill="#ffd56b" stroke="#dfe0df" points="2591,-324 2442,-324 2442,-288 2591,-288 2591,-324"/>
<text text-anchor="middle" x="2516.5" y="-302.3" font-family="Times,serif" font-size="14.00">CODE_OF_CONDUCT</text>
</g>
<!-- CONTRIBUTING -->
<g id="node14" class="node"><title>CONTRIBUTING</title>
<polygon fill="#ffd56b" stroke="#dfe0df" points="2727.5,-324 2609.5,-324 2609.5,-288 2727.5,-288 2727.5,-324"/>
<text text-anchor="middle" x="2668.5" y="-302.3" font-family="Times,serif" font-size="14.00">CONTRIBUTING</text>
</g>
<!-- SECURITY -->
<g id="node15" class="node"><title>SECURITY</title>
<polygon fill="#ffd56b" stroke="#dfe0df" points="2829,-324 2746,-324 2746,-288 2829,-288 2829,-324"/>
<text text-anchor="middle" x="2787.5" y="-302.3" font-family="Times,serif" font-size="14.00">SECURITY</text>
</g>
<!-- CodeBERT -->
<g id="node16" class="node"><title>CodeBERT</title>
<polygon fill="white" stroke="#dfe0df" points="2431.5,-396 2428.5,-400 2407.5,-400 2404.5,-396 2351.5,-396 2351.5,-360 2431.5,-360 2431.5,-396"/>
<text text-anchor="middle" x="2391.5" y="-374.3" font-family="Times,serif" font-size="14.00">CodeBERT</text>
</g>
<!-- CodeBERT&#45;&gt;README -->
<g id="edge55" class="edge"><title>CodeBERT&#45;&gt;README</title>
<polygon fill="#dfe0df" stroke="none" stroke-width="4" points="2351.57,-375.317 2344.52,-375.016 2337.1,-374.58 2329.34,-373.99 2321.27,-373.228 2312.95,-372.277 2304.41,-371.118 2295.71,-369.733 2286.87,-368.105 2277.95,-366.215 2268.98,-364.045 2260.01,-361.578 2251.09,-358.796 2242.25,-355.681 2233.54,-352.216 2225,-348.382 2216.67,-344.162 2208.6,-339.539 2200.83,-334.495 2193.4,-329.012 2186.35,-323.075 2181.23,-318.03 2177.04,-313.007 2173.65,-307.994 2170.98,-302.98 2168.92,-297.951 2167.38,-292.896 2166.26,-287.803 2165.48,-282.663 2164.93,-277.469 2164.53,-272.215 2164.18,-266.897 2163.77,-261.511 2163.23,-256.051 2162.43,-250.514 2161.3,-244.896 2159.73,-239.197 2157.61,-233.413 2154.87,-227.543 2151.4,-221.585 2147.11,-215.542 2141.06,-208.099 2134.67,-200.859 2127.96,-193.819 2120.99,-186.983 2113.77,-180.354 2106.36,-173.934 2098.78,-167.726 2091.08,-161.734 2083.3,-155.961 2075.46,-150.411 2067.61,-145.086 2059.78,-139.99 2052.02,-135.126 2044.35,-130.498 2036.82,-126.109 2029.47,-121.962 2022.32,-118.061 2015.43,-114.409 2008.82,-111.009 2002.54,-107.866 2002.54,-107.866 2008.8,-111.062 2015.37,-114.516 2022.24,-118.225 2029.34,-122.184 2036.66,-126.391 2044.15,-130.84 2051.77,-135.529 2059.48,-140.453 2067.26,-145.608 2075.05,-150.991 2082.83,-156.598 2090.55,-162.425 2098.19,-168.467 2105.69,-174.721 2113.03,-181.183 2120.16,-187.849 2127.05,-194.714 2133.66,-201.774 2139.96,-209.026 2145.89,-216.458 2150.06,-222.438 2153.41,-228.298 2156.05,-234.056 2158.06,-239.722 2159.55,-245.306 2160.62,-250.819 2161.35,-256.271 2161.85,-261.671 2162.2,-267.029 2162.51,-272.351 2162.87,-277.647 2163.38,-282.924 2164.14,-288.187 2165.25,-293.444 2166.8,-298.696 2168.9,-303.947 2171.64,-309.195 2175.11,-314.44 2179.42,-319.683 2184.65,-324.925 2191.78,-331.038 2199.3,-336.681 2207.16,-341.877 2215.32,-346.642 2223.74,-350.996 2232.37,-354.957 2241.16,-358.542 2250.09,-361.772 2259.09,-364.663 2268.14,-367.234 2277.19,-369.502 2286.18,-371.488 2295.1,-373.207 2303.87,-374.679 2312.48,-375.921 2320.87,-376.951 2329,-377.787 2336.83,-378.448 2344.31,-378.951 2351.39,-379.313 2351.57,-375.317"/>
</g>
<!-- CodeBERT&#45;&gt;NOTICE -->
<g id="edge13" class="edge"><title>CodeBERT&#45;&gt;NOTICE</title>
<polygon fill="#dfe0df" stroke="none" stroke-width="4" points="2393.5,-359.697 2393.41,-358.047 2393.31,-356.355 2393.22,-354.627 2393.12,-352.866 2393.02,-351.078 2392.91,-349.267 2392.81,-347.438 2392.71,-345.595 2392.6,-343.743 2392.5,-341.886 2392.39,-340.03 2392.29,-338.179 2392.19,-336.337 2392.08,-334.51 2391.98,-332.701 2391.88,-330.916 2391.78,-329.159 2391.69,-327.435 2391.59,-325.749 2391.5,-324.104 2391.5,-324.104 2391.41,-325.749 2391.31,-327.435 2391.22,-329.159 2391.12,-330.916 2391.02,-332.701 2390.92,-334.51 2390.81,-336.337 2390.71,-338.179 2390.61,-340.03 2390.5,-341.886 2390.4,-343.743 2390.29,-345.595 2390.19,-347.438 2390.09,-349.267 2389.98,-351.078 2389.88,-352.866 2389.78,-354.627 2389.69,-356.355 2389.59,-358.047 2389.5,-359.697 2393.5,-359.697"/>
</g>
<!-- CodeBERT&#45;&gt;CODE_OF_CONDUCT -->
<g id="edge56" class="edge"><title>CodeBERT&#45;&gt;CODE_OF_CONDUCT</title>
<polygon fill="#dfe0df" stroke="none" stroke-width="4" points="2423.06,-361.621 2425.96,-359.891 2428.93,-358.116 2431.97,-356.301 2435.07,-354.453 2438.22,-352.574 2441.41,-350.671 2444.63,-348.748 2447.88,-346.811 2451.15,-344.863 2454.42,-342.91 2457.7,-340.958 2460.96,-339.01 2464.21,-337.072 2467.43,-335.148 2470.63,-333.244 2473.78,-331.365 2476.88,-329.514 2479.92,-327.699 2482.9,-325.922 2485.8,-324.19 2485.8,-324.19 2482.81,-325.761 2479.74,-327.371 2476.6,-329.018 2473.4,-330.696 2470.15,-332.4 2466.86,-334.126 2463.54,-335.87 2460.19,-337.628 2456.82,-339.394 2453.44,-341.165 2450.07,-342.935 2446.7,-344.702 2443.35,-346.459 2440.03,-348.202 2436.74,-349.928 2433.49,-351.631 2430.3,-353.307 2427.16,-354.953 2424.09,-356.562 2421.1,-358.131 2423.06,-361.621"/>
</g>
<!-- CodeBERT&#45;&gt;CONTRIBUTING -->
<g id="edge57" class="edge"><title>CodeBERT&#45;&gt;CONTRIBUTING</title>
<polygon fill="#dfe0df" stroke="none" stroke-width="4" points="2432.27,-368.76 2439.47,-366.856 2447.09,-364.842 2455.09,-362.727 2463.42,-360.524 2472.05,-358.243 2480.94,-355.894 2490.04,-353.489 2499.31,-351.038 2508.71,-348.551 2518.21,-346.041 2527.76,-343.517 2537.32,-340.99 2546.84,-338.471 2556.3,-335.971 2565.65,-333.5 2574.84,-331.07 2583.84,-328.691 2592.6,-326.374 2601.1,-324.129 2609.27,-321.967 2609.27,-321.967 2601.05,-323.95 2592.51,-326.008 2583.7,-328.134 2574.65,-330.316 2565.4,-332.545 2556.01,-334.81 2546.5,-337.103 2536.92,-339.413 2527.31,-341.731 2517.71,-344.046 2508.16,-346.348 2498.7,-348.628 2489.38,-350.876 2480.23,-353.082 2471.29,-355.236 2462.62,-357.329 2454.24,-359.349 2446.19,-361.288 2438.53,-363.136 2431.29,-364.882 2432.27,-368.76"/>
</g>
<!-- CodeBERT&#45;&gt;SECURITY -->
<g id="edge58" class="edge"><title>CodeBERT&#45;&gt;SECURITY</title>
<polygon fill="#dfe0df" stroke="none" stroke-width="4" points="2431.72,-375.068 2441.92,-373.91 2453.05,-372.607 2465.05,-371.161 2477.84,-369.57 2491.37,-367.835 2505.56,-365.953 2520.35,-363.926 2535.67,-361.753 2551.46,-359.432 2567.64,-356.964 2584.15,-354.348 2600.92,-351.583 2617.89,-348.669 2634.99,-345.606 2652.15,-342.393 2669.3,-339.029 2686.38,-335.514 2703.32,-331.848 2720.06,-328.03 2736.51,-324.059 2736.98,-323.944 2737.44,-323.827 2737.91,-323.708 2738.37,-323.589 2738.84,-323.467 2739.31,-323.344 2739.78,-323.22 2740.24,-323.095 2740.71,-322.968 2741.19,-322.84 2741.66,-322.711 2742.13,-322.581 2742.6,-322.449 2743.07,-322.317 2743.55,-322.183 2744.02,-322.048 2744.5,-321.912 2744.97,-321.775 2745.44,-321.637 2745.92,-321.499 2745.92,-321.499 2745.44,-321.631 2744.97,-321.763 2744.49,-321.894 2744.01,-322.024 2743.54,-322.153 2743.06,-322.281 2742.59,-322.408 2742.12,-322.533 2741.64,-322.658 2741.17,-322.781 2740.7,-322.903 2740.23,-323.024 2739.75,-323.143 2739.28,-323.261 2738.82,-323.378 2738.35,-323.493 2737.88,-323.607 2737.41,-323.72 2736.95,-323.831 2736.49,-323.941 2719.98,-327.704 2703.21,-331.311 2686.23,-334.763 2669.11,-338.061 2651.93,-341.208 2634.74,-344.204 2617.62,-347.05 2600.63,-349.749 2583.83,-352.301 2567.3,-354.708 2551.1,-356.971 2535.3,-359.092 2519.97,-361.072 2505.17,-362.911 2490.97,-364.613 2477.43,-366.177 2464.63,-367.606 2452.63,-368.9 2441.5,-370.061 2431.29,-371.091 2431.72,-375.068"/>
</g>
<!-- CodeBERT.CodeBERT -->
<g id="node17" class="node"><title>CodeBERT.CodeBERT</title>
<polygon fill="white" stroke="#dfe0df" points="2340.5,-324 2337.5,-328 2316.5,-328 2313.5,-324 2194.5,-324 2194.5,-288 2340.5,-288 2340.5,-324"/>
<text text-anchor="middle" x="2267.5" y="-302.3" font-family="Times,serif" font-size="14.00">CodeBERT.CodeBERT</text>
</g>
<!-- CodeBERT&#45;&gt;CodeBERT.CodeBERT -->
<g id="edge1" class="edge"><title>CodeBERT&#45;&gt;CodeBERT.CodeBERT</title>
<polygon fill="#dfe0de" stroke="none" stroke-width="4" points="2362.15,-358.134 2359.18,-356.565 2356.14,-354.956 2353.03,-353.31 2349.85,-351.634 2346.63,-349.93 2343.37,-348.205 2340.07,-346.461 2336.75,-344.704 2333.41,-342.937 2330.06,-341.167 2326.71,-339.396 2323.37,-337.629 2320.04,-335.872 2316.75,-334.127 2313.48,-332.401 2310.26,-330.696 2307.08,-329.018 2303.97,-327.372 2300.92,-325.761 2297.95,-324.19 2297.95,-324.19 2300.83,-325.922 2303.78,-327.698 2306.8,-329.514 2309.88,-331.364 2313,-333.243 2316.17,-335.147 2319.37,-337.07 2322.59,-339.008 2325.83,-340.956 2329.07,-342.909 2332.32,-344.861 2335.56,-346.809 2338.78,-348.746 2341.98,-350.669 2345.14,-352.572 2348.26,-354.45 2351.34,-356.299 2354.36,-358.113 2357.31,-359.887 2360.18,-361.618 2362.15,-358.134"/>
</g>
<!-- CodeBERT.GraphCodeBERT -->
<g id="node20" class="node"><title>CodeBERT.GraphCodeBERT</title>
<polygon fill="white" stroke="#dfe0df" points="1636.5,-324 1633.5,-328 1612.5,-328 1609.5,-324 1456.5,-324 1456.5,-288 1636.5,-288 1636.5,-324"/>
<text text-anchor="middle" x="1546.5" y="-302.3" font-family="Times,serif" font-size="14.00">CodeBERT.GraphCodeBERT</text>
</g>
<!-- CodeBERT&#45;&gt;CodeBERT.GraphCodeBERT -->
<g id="edge14" class="edge"><title>CodeBERT&#45;&gt;CodeBERT.GraphCodeBERT</title>
<polygon fill="#dfe0de" stroke="none" stroke-width="4" points="2351.48,-371.678 2330.16,-369.971 2305.08,-367.964 2276.61,-365.686 2245.13,-363.166 2211,-360.435 2174.62,-357.523 2136.34,-354.459 2096.54,-351.274 2055.59,-347.997 2013.88,-344.658 1971.76,-341.288 1929.63,-337.916 1887.84,-334.571 1846.78,-331.285 1806.81,-328.086 1768.32,-325.005 1731.67,-322.072 1697.23,-319.316 1665.4,-316.768 1636.52,-314.457 1636.52,-314.457 1665.38,-316.929 1697.21,-319.655 1731.62,-322.603 1768.25,-325.74 1806.73,-329.036 1846.68,-332.457 1887.72,-335.972 1929.49,-339.55 1971.61,-343.157 2013.7,-346.762 2055.4,-350.334 2096.32,-353.839 2136.11,-357.246 2174.37,-360.523 2210.74,-363.638 2244.85,-366.559 2276.31,-369.255 2304.77,-371.692 2329.84,-373.839 2351.15,-375.664 2351.48,-371.678"/>
</g>
<!-- CodeBERT.CodeBERT.codesearch -->
<g id="node18" class="node"><title>CodeBERT.CodeBERT.codesearch</title>
<polygon fill="white" stroke="#dfe0df" points="2372.5,-180 2369.5,-184 2348.5,-184 2345.5,-180 2162.5,-180 2162.5,-144 2372.5,-144 2372.5,-180"/>
<text text-anchor="middle" x="2267.5" y="-158.3" font-family="Times,serif" font-size="14.00">CodeBERT.CodeBERT.codesearch</text>
</g>
<!-- CodeBERT.CodeBERT&#45;&gt;CodeBERT.CodeBERT.codesearch -->
<g id="edge2" class="edge"><title>CodeBERT.CodeBERT&#45;&gt;CodeBERT.CodeBERT.codesearch</title>
<polygon fill="#dfe0de" stroke="none" stroke-width="4" points="2269.5,-287.871 2269.42,-283.591 2269.33,-278.962 2269.24,-274.024 2269.15,-268.816 2269.05,-263.375 2268.94,-257.741 2268.83,-251.953 2268.72,-246.048 2268.61,-240.066 2268.5,-234.045 2268.39,-228.023 2268.28,-222.04 2268.17,-216.134 2268.06,-210.343 2267.96,-204.707 2267.85,-199.263 2267.76,-194.051 2267.67,-189.109 2267.58,-184.475 2267.5,-180.189 2267.5,-180.189 2267.42,-184.475 2267.33,-189.109 2267.24,-194.051 2267.15,-199.263 2267.04,-204.707 2266.94,-210.343 2266.83,-216.134 2266.72,-222.04 2266.61,-228.023 2266.5,-234.045 2266.39,-240.066 2266.28,-246.048 2266.17,-251.953 2266.06,-257.741 2265.95,-263.375 2265.85,-268.816 2265.76,-274.024 2265.67,-278.962 2265.58,-283.591 2265.5,-287.871 2269.5,-287.871"/>
</g>
<!-- CodeBERT.CodeBERT.code2nl -->
<g id="node19" class="node"><title>CodeBERT.CodeBERT.code2nl</title>
<polygon fill="white" stroke="#dfe0df" points="2138,-252 2135,-256 2114,-256 2111,-252 1945,-252 1945,-216 2138,-216 2138,-252"/>
<text text-anchor="middle" x="2041.5" y="-230.3" font-family="Times,serif" font-size="14.00">CodeBERT.CodeBERT.code2nl</text>
</g>
<!-- CodeBERT.CodeBERT&#45;&gt;CodeBERT.CodeBERT.code2nl -->
<g id="edge8" class="edge"><title>CodeBERT.CodeBERT&#45;&gt;CodeBERT.CodeBERT.code2nl</title>
<polygon fill="#dfe0de" stroke="none" stroke-width="4" points="2213.09,-286.055 2207.72,-284.487 2202.21,-282.879 2196.57,-281.234 2190.82,-279.558 2184.99,-277.855 2179.07,-276.129 2173.09,-274.384 2167.07,-272.627 2161.01,-270.86 2154.94,-269.088 2148.86,-267.317 2142.81,-265.549 2136.78,-263.791 2130.8,-262.046 2124.88,-260.319 2119.04,-258.615 2113.29,-256.937 2107.64,-255.291 2102.12,-253.681 2096.74,-252.111 2096.74,-252.111 2102.07,-253.857 2107.53,-255.649 2113.12,-257.48 2118.81,-259.347 2124.59,-261.243 2130.45,-263.164 2136.37,-265.106 2142.34,-267.062 2148.33,-269.028 2154.35,-270.999 2160.36,-272.97 2166.35,-274.936 2172.31,-276.892 2178.23,-278.832 2184.09,-280.753 2189.87,-282.648 2195.56,-284.513 2201.14,-286.342 2206.59,-288.132 2211.91,-289.876 2213.09,-286.055"/>
</g>
<!-- CodeBERT.CodeBERT.codesearch&#45;&gt;run_classifier -->
<g id="edge3" class="edge"><title>CodeBERT.CodeBERT.codesearch&#45;&gt;run_classifier</title>
<polygon fill="#dfe0df" stroke="none" stroke-width="4" points="2226.81,-142.122 2219.02,-139.065 2210.7,-135.837 2201.89,-132.457 2192.64,-128.946 2182.96,-125.323 2172.91,-121.607 2162.5,-117.819 2151.79,-113.978 2140.8,-110.104 2129.57,-106.216 2118.14,-102.333 2106.53,-98.4762 2094.79,-94.6643 2082.95,-90.9171 2071.04,-87.2542 2059.11,-83.6953 2047.18,-80.2598 2035.29,-76.9675 2023.48,-73.838 2011.78,-70.8909 1995.83,-67.103 1979.63,-63.4742 1963.23,-60.0028 1946.69,-56.687 1930.08,-53.525 1913.45,-50.5149 1896.87,-47.655 1880.41,-44.9435 1864.11,-42.3786 1848.04,-39.9586 1832.27,-37.6817 1816.86,-35.5462 1801.86,-33.5504 1787.34,-31.6924 1773.36,-29.9705 1759.97,-28.383 1747.26,-26.9282 1735.26,-25.6043 1724.05,-24.4096 1713.69,-23.3424 1713.69,-23.3424 1724.04,-24.488 1735.24,-25.7675 1747.23,-27.182 1759.93,-28.7329 1773.3,-30.4214 1787.27,-32.2487 1801.77,-34.2162 1816.75,-36.325 1832.14,-38.5764 1847.89,-40.9718 1863.93,-43.5122 1880.2,-46.199 1896.64,-49.0334 1913.18,-52.0166 1929.77,-55.1499 1946.34,-58.4344 1962.83,-61.8714 1979.19,-65.4621 1995.34,-69.2076 2011.22,-73.1091 2022.87,-76.1371 2034.64,-79.3485 2046.47,-82.7233 2058.35,-86.2417 2070.24,-89.8837 2082.09,-93.6296 2093.88,-97.4594 2105.57,-101.353 2117.13,-105.291 2128.52,-109.254 2139.7,-113.22 2150.64,-117.172 2161.31,-121.088 2171.67,-124.948 2181.68,-128.734 2191.31,-132.424 2200.53,-136 2209.29,-139.441 2217.58,-142.727 2225.34,-145.84 2226.81,-142.122"/>
</g>
<!-- CodeBERT.CodeBERT.codesearch&#45;&gt;utils -->
<g id="edge4" class="edge"><title>CodeBERT.CodeBERT.codesearch&#45;&gt;utils</title>
<polygon fill="#dfe0df" stroke="none" stroke-width="4" points="2162.61,-152.606 2122.13,-150.22 2076.66,-147.539 2026.85,-144.603 1973.36,-141.449 1916.83,-138.117 1857.9,-134.643 1797.24,-131.067 1735.48,-127.426 1673.29,-123.759 1611.29,-120.105 1550.16,-116.501 1490.53,-112.985 1433.05,-109.597 1378.37,-106.373 1327.15,-103.353 1280.02,-100.575 1237.65,-98.0774 1200.67,-95.8976 1169.75,-94.0744 1145.52,-92.6459 1145.52,-92.6459 1169.74,-94.1695 1200.66,-96.1141 1237.63,-98.439 1279.99,-101.103 1327.1,-104.066 1378.31,-107.287 1432.98,-110.725 1490.44,-114.339 1550.06,-118.089 1611.18,-121.933 1673.16,-125.831 1735.34,-129.742 1797.08,-133.625 1857.73,-137.439 1916.64,-141.144 1973.16,-144.699 2026.64,-148.063 2076.44,-151.194 2121.89,-154.053 2162.37,-156.599 2162.61,-152.606"/>
</g>
<!-- CodeBERT.CodeBERT.codesearch&#45;&gt;mrr -->
<g id="edge5" class="edge"><title>CodeBERT.CodeBERT.codesearch&#45;&gt;mrr</title>
<polygon fill="#dfe0df" stroke="none" stroke-width="4" points="2258.32,-142.632 2257.2,-141.032 2256.06,-139.391 2254.89,-137.714 2253.7,-136.006 2252.49,-134.272 2251.27,-132.515 2250.03,-130.74 2248.78,-128.952 2247.53,-127.155 2246.27,-125.354 2245.02,-123.554 2243.77,-121.758 2242.52,-119.971 2241.29,-118.199 2240.06,-116.444 2238.86,-114.713 2237.67,-113.008 2236.5,-111.336 2235.36,-109.7 2234.25,-108.104 2234.25,-108.104 2235.21,-109.798 2236.19,-111.535 2237.19,-113.311 2238.21,-115.12 2239.25,-116.958 2240.3,-118.821 2241.36,-120.703 2242.43,-122.6 2243.5,-124.506 2244.58,-126.418 2245.66,-128.33 2246.74,-130.237 2247.81,-132.136 2248.87,-134.02 2249.92,-135.885 2250.96,-137.727 2251.98,-139.54 2252.99,-141.32 2253.97,-143.062 2254.93,-144.761 2258.32,-142.632"/>
</g>
<!-- CodeBERT.CodeBERT.codesearch&#45;&gt;README -->
<g id="edge6" class="edge"><title>CodeBERT.CodeBERT.codesearch&#45;&gt;README</title>
<polygon fill="#dfe0df" stroke="none" stroke-width="4" points="2194.46,-142.017 2185.19,-139.967 2175.61,-137.851 2165.79,-135.678 2155.75,-133.458 2145.54,-131.202 2135.22,-128.919 2124.81,-126.618 2114.37,-124.31 2103.94,-122.004 2093.56,-119.71 2083.29,-117.438 2073.15,-115.197 2063.21,-112.998 2053.49,-110.85 2044.05,-108.763 2034.93,-106.746 2026.17,-104.81 2017.82,-102.964 2009.92,-101.218 2002.52,-99.5816 2002.52,-99.5816 2009.89,-101.368 2017.75,-103.275 2026.06,-105.29 2034.78,-107.404 2043.85,-109.606 2053.25,-111.885 2062.92,-114.23 2072.82,-116.631 2082.91,-119.078 2093.14,-121.558 2103.46,-124.063 2113.84,-126.581 2124.23,-129.101 2134.59,-131.613 2144.87,-134.106 2155.03,-136.569 2165.02,-138.992 2174.8,-141.365 2184.33,-143.675 2193.56,-145.914 2194.46,-142.017"/>
</g>
<!-- CodeBERT.CodeBERT.codesearch&#45;&gt;process_data -->
<g id="edge7" class="edge"><title>CodeBERT.CodeBERT.codesearch&#45;&gt;process_data</title>
<polygon fill="#dfe0df" stroke="none" stroke-width="4" points="2280.07,-144.761 2281.03,-143.062 2282.01,-141.32 2283.02,-139.54 2284.04,-137.727 2285.08,-135.885 2286.13,-134.02 2287.19,-132.136 2288.26,-130.237 2289.34,-128.33 2290.42,-126.418 2291.5,-124.506 2292.57,-122.6 2293.64,-120.703 2294.7,-118.821 2295.75,-116.958 2296.79,-115.12 2297.81,-113.311 2298.81,-111.535 2299.79,-109.798 2300.75,-108.104 2300.75,-108.104 2299.64,-109.7 2298.5,-111.336 2297.33,-113.008 2296.14,-114.713 2294.94,-116.444 2293.71,-118.199 2292.48,-119.971 2291.23,-121.758 2289.98,-123.554 2288.73,-125.354 2287.47,-127.155 2286.22,-128.952 2284.97,-130.74 2283.73,-132.515 2282.51,-134.272 2281.3,-136.006 2280.11,-137.714 2278.94,-139.391 2277.8,-141.032 2276.68,-142.632 2280.07,-144.761"/>
</g>
<!-- CodeBERT.CodeBERT.code2nl&#45;&gt;README -->
<g id="edge9" class="edge"><title>CodeBERT.CodeBERT.code2nl&#45;&gt;README</title>
<polygon fill="#dfe0df" stroke="none" stroke-width="4" points="2041.51,-215.647 2041.02,-212.758 2040.48,-209.699 2039.87,-206.495 2039.21,-203.159 2038.48,-199.705 2037.68,-196.149 2036.82,-192.505 2035.88,-188.786 2034.87,-185.007 2033.78,-181.183 2032.62,-177.328 2031.37,-173.457 2030.04,-169.583 2028.62,-165.722 2027.11,-161.887 2025.52,-158.093 2023.83,-154.355 2022.04,-150.686 2020.15,-147.102 2018.17,-143.619 2016.92,-141.58 2015.61,-139.562 2014.25,-137.565 2012.84,-135.589 2011.38,-133.637 2009.88,-131.71 2008.34,-129.809 2006.76,-127.935 2005.16,-126.091 2003.54,-124.277 2001.89,-122.495 2000.23,-120.747 1998.55,-119.033 1996.88,-117.356 1995.19,-115.716 1993.51,-114.117 1991.84,-112.558 1990.18,-111.041 1988.53,-109.569 1986.91,-108.142 1986.91,-108.142 1988.49,-109.621 1990.08,-111.145 1991.69,-112.714 1993.31,-114.324 1994.94,-115.975 1996.56,-117.665 1998.18,-119.391 1999.79,-121.153 2001.39,-122.948 2002.97,-124.775 2004.53,-126.631 2006.06,-128.516 2007.56,-130.427 2009.03,-132.362 2010.45,-134.32 2011.84,-136.298 2013.17,-138.296 2014.45,-140.31 2015.67,-142.34 2016.83,-144.381 2018.68,-147.88 2020.42,-151.473 2022.06,-155.147 2023.61,-158.888 2025.06,-162.682 2026.43,-166.514 2027.7,-170.37 2028.89,-174.237 2030,-178.099 2031.03,-181.943 2031.98,-185.755 2032.86,-189.519 2033.66,-193.223 2034.4,-196.851 2035.07,-200.389 2035.68,-203.824 2036.23,-207.14 2036.72,-210.323 2037.16,-213.36 2037.55,-216.245 2041.51,-215.647"/>
</g>
<!-- CodeBERT.CodeBERT.code2nl&#45;&gt;bleu -->
<g id="edge10" class="edge"><title>CodeBERT.CodeBERT.code2nl&#45;&gt;bleu</title>
<polygon fill="#dfe0df" stroke="none" stroke-width="4" points="1991.77,-214.071 1985.51,-212.055 1979.05,-209.976 1972.42,-207.841 1965.65,-205.661 1958.76,-203.445 1951.79,-201.202 1944.77,-198.941 1937.72,-196.671 1930.68,-194.403 1923.66,-192.144 1916.71,-189.905 1909.84,-187.695 1903.09,-185.523 1896.49,-183.398 1890.07,-181.329 1883.85,-179.327 1877.86,-177.399 1872.14,-175.556 1866.7,-173.806 1861.59,-172.16 1861.59,-172.16 1866.65,-173.955 1872.03,-175.863 1877.7,-177.873 1883.63,-179.975 1889.79,-182.158 1896.15,-184.414 1902.69,-186.731 1909.37,-189.1 1916.16,-191.51 1923.05,-193.951 1930,-196.414 1936.97,-198.887 1943.95,-201.362 1950.91,-203.827 1957.81,-206.273 1964.62,-208.69 1971.33,-211.067 1977.89,-213.395 1984.29,-215.662 1990.49,-217.86 1991.77,-214.071"/>
</g>
<!-- CodeBERT.CodeBERT.code2nl&#45;&gt;run -->
<g id="edge11" class="edge"><title>CodeBERT.CodeBERT.code2nl&#45;&gt;run</title>
<polygon fill="#dfe0df" stroke="none" stroke-width="4" points="2017.98,-214.182 2013.39,-211.15 2008.49,-207.948 2003.3,-204.597 1997.84,-201.116 1992.12,-197.524 1986.17,-193.839 1980.01,-190.08 1973.65,-186.266 1967.11,-182.415 1960.41,-178.546 1953.58,-174.678 1946.63,-170.829 1939.57,-167.018 1932.43,-163.264 1925.23,-159.586 1917.98,-156.001 1910.71,-152.53 1903.43,-149.19 1896.16,-146 1888.92,-142.979 1879.75,-139.366 1870.4,-135.886 1860.9,-132.541 1851.29,-129.328 1841.61,-126.249 1831.9,-123.301 1822.2,-120.486 1812.54,-117.802 1802.96,-115.249 1793.5,-112.826 1784.19,-110.534 1775.08,-108.372 1766.2,-106.34 1757.59,-104.437 1749.29,-102.662 1741.33,-101.017 1733.76,-99.4992 1726.61,-98.1098 1719.92,-96.8481 1713.72,-95.7136 1713.72,-95.7136 1719.9,-96.9233 1726.58,-98.2662 1733.71,-99.7422 1741.26,-101.351 1749.2,-103.093 1757.47,-104.967 1766.05,-106.974 1774.9,-109.113 1783.98,-111.384 1793.25,-113.787 1802.67,-116.322 1812.21,-118.988 1821.82,-121.785 1831.48,-124.714 1841.13,-127.773 1850.75,-130.963 1860.29,-134.283 1869.72,-137.733 1878.99,-141.312 1888.08,-145.021 1895.24,-148.112 1902.43,-151.373 1909.64,-154.785 1916.83,-158.328 1924.01,-161.984 1931.13,-165.734 1938.2,-169.559 1945.18,-173.44 1952.06,-177.358 1958.82,-181.295 1965.44,-185.231 1971.91,-189.147 1978.2,-193.025 1984.3,-196.845 1990.18,-200.589 1995.83,-204.238 2001.24,-207.773 2006.37,-211.174 2011.21,-214.424 2015.76,-217.506 2017.98,-214.182"/>
</g>
<!-- CodeBERT.CodeBERT.code2nl&#45;&gt;model -->
<g id="edge12" class="edge"><title>CodeBERT.CodeBERT.code2nl&#45;&gt;model</title>
<polygon fill="#dfe0df" stroke="none" stroke-width="4" points="1955.5,-214.003 1943.42,-211.724 1930.92,-209.365 1918.07,-206.939 1904.93,-204.459 1891.59,-201.94 1878.1,-199.394 1864.53,-196.834 1850.97,-194.273 1837.48,-191.726 1824.12,-189.205 1810.97,-186.724 1798.11,-184.295 1785.59,-181.933 1773.5,-179.65 1761.89,-177.459 1750.85,-175.375 1740.44,-173.41 1730.73,-171.577 1721.79,-169.89 1713.69,-168.362 1713.69,-168.362 1721.76,-170.021 1730.67,-171.853 1740.35,-173.844 1750.73,-175.978 1761.74,-178.242 1773.3,-180.62 1785.36,-183.1 1797.84,-185.665 1810.66,-188.303 1823.77,-190.997 1837.08,-193.735 1850.53,-196.501 1864.05,-199.282 1877.57,-202.062 1891.02,-204.827 1904.32,-207.563 1917.42,-210.256 1930.23,-212.89 1942.69,-215.452 1954.72,-217.928 1955.5,-214.003"/>
</g>
<!-- CodeBERT.GraphCodeBERT.codesearch -->
<g id="node21" class="node"><title>CodeBERT.GraphCodeBERT.codesearch</title>
<polygon fill="white" stroke="#dfe0df" points="1406.5,-252 1403.5,-256 1382.5,-256 1379.5,-252 1162.5,-252 1162.5,-216 1406.5,-216 1406.5,-252"/>
<text text-anchor="middle" x="1284.5" y="-230.3" font-family="Times,serif" font-size="14.00">CodeBERT.GraphCodeBERT.codesearch</text>
</g>
<!-- CodeBERT.GraphCodeBERT&#45;&gt;CodeBERT.GraphCodeBERT.codesearch -->
<g id="edge15" class="edge"><title>CodeBERT.GraphCodeBERT&#45;&gt;CodeBERT.GraphCodeBERT.codesearch</title>
<polygon fill="#dfe0de" stroke="none" stroke-width="4" points="1483.26,-286.033 1477.04,-284.467 1470.65,-282.859 1464.13,-281.216 1457.47,-279.54 1450.71,-277.838 1443.86,-276.113 1436.94,-274.37 1429.97,-272.614 1422.95,-270.848 1415.92,-269.077 1408.89,-267.307 1401.88,-265.541 1394.9,-263.784 1387.97,-262.04 1381.12,-260.314 1374.35,-258.61 1367.7,-256.934 1361.16,-255.289 1354.77,-253.68 1348.54,-252.111 1348.54,-252.111 1354.73,-253.858 1361.07,-255.651 1367.55,-257.483 1374.16,-259.351 1380.87,-261.248 1387.67,-263.171 1394.54,-265.113 1401.47,-267.071 1408.43,-269.038 1415.41,-271.01 1422.38,-272.982 1429.34,-274.949 1436.26,-276.906 1443.13,-278.848 1449.93,-280.769 1456.64,-282.665 1463.24,-284.531 1469.72,-286.362 1476.05,-288.153 1482.23,-289.898 1483.26,-286.033"/>
</g>
<!-- CodeBERT.GraphCodeBERT.refinement -->
<g id="node23" class="node"><title>CodeBERT.GraphCodeBERT.refinement</title>
<polygon fill="white" stroke="#dfe0df" points="1668,-252 1665,-256 1644,-256 1641,-252 1425,-252 1425,-216 1668,-216 1668,-252"/>
<text text-anchor="middle" x="1546.5" y="-230.3" font-family="Times,serif" font-size="14.00">CodeBERT.GraphCodeBERT.refinement</text>
</g>
<!-- CodeBERT.GraphCodeBERT&#45;&gt;CodeBERT.GraphCodeBERT.refinement -->
<g id="edge24" class="edge"><title>CodeBERT.GraphCodeBERT&#45;&gt;CodeBERT.GraphCodeBERT.refinement</title>
<polygon fill="#dfe0de" stroke="none" stroke-width="4" points="1548.5,-287.697 1548.41,-286.047 1548.31,-284.355 1548.22,-282.627 1548.12,-280.866 1548.02,-279.078 1547.91,-277.267 1547.81,-275.438 1547.71,-273.595 1547.6,-271.743 1547.5,-269.886 1547.39,-268.03 1547.29,-266.179 1547.19,-264.337 1547.08,-262.51 1546.98,-260.701 1546.88,-258.916 1546.78,-257.159 1546.69,-255.435 1546.59,-253.749 1546.5,-252.104 1546.5,-252.104 1546.41,-253.749 1546.31,-255.435 1546.22,-257.159 1546.12,-258.916 1546.02,-260.701 1545.92,-262.51 1545.81,-264.337 1545.71,-266.179 1545.61,-268.03 1545.5,-269.886 1545.4,-271.743 1545.29,-273.595 1545.19,-275.438 1545.09,-277.267 1544.98,-279.078 1544.88,-280.866 1544.78,-282.627 1544.69,-284.355 1544.59,-286.047 1544.5,-287.697 1548.5,-287.697"/>
</g>
<!-- CodeBERT.GraphCodeBERT.translation -->
<g id="node25" class="node"><title>CodeBERT.GraphCodeBERT.translation</title>
<polygon fill="white" stroke="#dfe0df" points="1927,-252 1924,-256 1903,-256 1900,-252 1686,-252 1686,-216 1927,-216 1927,-252"/>
<text text-anchor="middle" x="1806.5" y="-230.3" font-family="Times,serif" font-size="14.00">CodeBERT.GraphCodeBERT.translation</text>
</g>
<!-- CodeBERT.GraphCodeBERT&#45;&gt;CodeBERT.GraphCodeBERT.translation -->
<g id="edge34" class="edge"><title>CodeBERT.GraphCodeBERT&#45;&gt;CodeBERT.GraphCodeBERT.translation</title>
<polygon fill="#dfe0de" stroke="none" stroke-width="4" points="1610.29,-289.897 1616.42,-288.152 1622.7,-286.361 1629.13,-284.53 1635.68,-282.664 1642.34,-280.768 1649.08,-278.847 1655.9,-276.905 1662.77,-274.949 1669.67,-272.982 1676.6,-271.01 1683.52,-269.038 1690.43,-267.07 1697.3,-265.113 1704.12,-263.171 1710.87,-261.248 1717.53,-259.351 1724.08,-257.483 1730.52,-255.651 1736.81,-253.858 1742.95,-252.111 1742.95,-252.111 1736.76,-253.68 1730.42,-255.289 1723.94,-256.934 1717.33,-258.611 1710.62,-260.314 1703.81,-262.04 1696.94,-263.784 1690.02,-265.541 1683.06,-267.307 1676.08,-269.078 1669.1,-270.848 1662.14,-272.614 1655.22,-274.371 1648.35,-276.114 1641.55,-277.839 1634.84,-279.541 1628.24,-281.217 1621.76,-282.86 1615.43,-284.468 1609.25,-286.034 1610.29,-289.897"/>
</g>
<!-- CodeBERT.GraphCodeBERT.clonedetection -->
<g id="node27" class="node"><title>CodeBERT.GraphCodeBERT.clonedetection</title>
<polygon fill="white" stroke="#dfe0df" points="1144,-252 1141,-256 1120,-256 1117,-252 881,-252 881,-216 1144,-216 1144,-252"/>
<text text-anchor="middle" x="1012.5" y="-230.3" font-family="Times,serif" font-size="14.00">CodeBERT.GraphCodeBERT.clonedetection</text>
</g>
<!-- CodeBERT.GraphCodeBERT&#45;&gt;CodeBERT.GraphCodeBERT.clonedetection -->
<g id="edge44" class="edge"><title>CodeBERT.GraphCodeBERT&#45;&gt;CodeBERT.GraphCodeBERT.clonedetection</title>
<polygon fill="#dfe0de" stroke="none" stroke-width="4" points="1456.48,-291.182 1443.23,-289.53 1429.37,-287.802 1414.96,-286.006 1400.05,-284.148 1384.72,-282.236 1369,-280.277 1352.97,-278.279 1336.68,-276.248 1320.19,-274.192 1303.56,-272.119 1286.85,-270.035 1270.1,-267.948 1253.4,-265.865 1236.78,-263.793 1220.31,-261.741 1204.06,-259.714 1188.07,-257.72 1172.4,-255.767 1157.12,-253.862 1142.28,-252.012 1142.28,-252.012 1157.09,-254.05 1172.35,-256.148 1187.99,-258.298 1203.95,-260.494 1220.19,-262.726 1236.62,-264.986 1253.21,-267.267 1269.89,-269.561 1286.61,-271.86 1303.29,-274.155 1319.9,-276.438 1336.36,-278.702 1352.62,-280.938 1368.63,-283.139 1384.32,-285.296 1399.63,-287.402 1414.51,-289.448 1428.89,-291.426 1442.73,-293.329 1455.96,-295.148 1456.48,-291.182"/>
</g>
<!-- CodeBERT.GraphCodeBERT.codesearch&#45;&gt;README -->
<g id="edge21" class="edge"><title>CodeBERT.GraphCodeBERT.codesearch&#45;&gt;README</title>
<polygon fill="#dfe0df" stroke="none" stroke-width="4" points="1406.76,-219.056 1407.21,-218.999 1407.66,-218.943 1408.11,-218.887 1408.57,-218.832 1409.02,-218.776 1409.47,-218.72 1409.92,-218.665 1410.37,-218.609 1410.82,-218.554 1411.27,-218.499 1411.72,-218.444 1412.16,-218.389 1412.61,-218.334 1413.06,-218.279 1413.5,-218.225 1413.95,-218.17 1414.4,-218.116 1414.84,-218.062 1415.29,-218.007 1415.72,-217.955 1437.56,-215.635 1458.02,-214.083 1477.25,-213.179 1495.39,-212.802 1512.6,-212.833 1529.01,-213.152 1544.77,-213.641 1560.03,-214.179 1574.93,-214.645 1589.62,-214.921 1604.23,-214.884 1618.91,-214.415 1633.8,-213.392 1649.04,-211.695 1664.77,-209.204 1681.13,-205.799 1698.27,-201.361 1716.33,-195.77 1735.45,-188.907 1755.78,-180.652 1759.07,-179.131 1762.03,-177.545 1764.69,-175.899 1767.08,-174.199 1769.25,-172.453 1771.22,-170.665 1773.03,-168.843 1774.72,-166.993 1776.33,-165.122 1777.88,-163.234 1779.42,-161.335 1780.98,-159.43 1782.61,-157.524 1784.33,-155.619 1786.18,-153.72 1788.21,-151.83 1790.44,-149.953 1792.91,-148.093 1795.67,-146.254 1798.75,-144.439 1805.06,-141.048 1811.53,-137.776 1818.12,-134.623 1824.83,-131.589 1831.61,-128.673 1838.46,-125.873 1845.35,-123.19 1852.25,-120.622 1859.15,-118.167 1866.02,-115.826 1872.84,-113.597 1879.59,-111.479 1886.25,-109.471 1892.78,-107.572 1899.19,-105.781 1905.43,-104.097 1911.48,-102.519 1917.34,-101.046 1922.96,-99.6772 1928.34,-98.4115 1928.34,-98.4115 1922.95,-99.638 1917.32,-100.966 1911.45,-102.396 1905.38,-103.93 1899.13,-105.569 1892.71,-107.314 1886.16,-109.166 1879.48,-111.127 1872.71,-113.197 1865.87,-115.378 1858.98,-117.671 1852.05,-120.078 1845.12,-122.599 1838.21,-125.235 1831.33,-127.989 1824.51,-130.862 1817.77,-133.853 1811.13,-136.966 1804.62,-140.201 1798.25,-143.561 1795.12,-145.377 1792.3,-147.228 1789.77,-149.105 1787.48,-151.003 1785.4,-152.915 1783.5,-154.835 1781.74,-156.756 1780.08,-158.671 1778.5,-160.576 1776.94,-162.462 1775.39,-164.326 1773.79,-166.162 1772.12,-167.965 1770.33,-169.731 1768.4,-171.458 1766.29,-173.139 1763.95,-174.774 1761.35,-176.356 1758.45,-177.882 1755.22,-179.348 1734.89,-187.43 1715.79,-194.13 1697.77,-199.565 1680.69,-203.856 1664.4,-207.122 1648.75,-209.483 1633.6,-211.059 1618.79,-211.967 1604.2,-212.327 1589.65,-212.258 1575.01,-211.876 1560.14,-211.302 1544.88,-210.653 1529.1,-210.049 1512.64,-209.608 1495.37,-209.451 1477.14,-209.697 1457.81,-210.465 1437.23,-211.875 1415.28,-214.045 1414.82,-214.097 1414.38,-214.148 1413.93,-214.199 1413.49,-214.25 1413.04,-214.302 1412.59,-214.353 1412.14,-214.405 1411.7,-214.456 1411.25,-214.508 1410.8,-214.56 1410.35,-214.612 1409.9,-214.664 1409.45,-214.716 1409,-214.768 1408.54,-214.821 1408.09,-214.873 1407.64,-214.926 1407.19,-214.979 1406.73,-215.031 1406.28,-215.084 1406.76,-219.056"/>
</g>
<!-- CodeBERT.GraphCodeBERT.codesearch&#45;&gt;run -->
<g id="edge22" class="edge"><title>CodeBERT.GraphCodeBERT.codesearch&#45;&gt;run</title>
<polygon fill="#dfe0df" stroke="none" stroke-width="4" points="1406.9,-219.273 1416.51,-217.74 1426.18,-216.155 1435.89,-214.518 1445.58,-212.832 1455.24,-211.1 1464.81,-209.322 1474.26,-207.501 1483.56,-205.638 1492.67,-203.737 1501.55,-201.797 1510.17,-199.822 1518.48,-197.814 1526.47,-195.773 1534.07,-193.702 1541.27,-191.603 1548.03,-189.477 1554.3,-187.325 1560.05,-185.15 1565.26,-182.951 1569.87,-180.731 1572.85,-179.105 1575.53,-177.472 1577.94,-175.828 1580.12,-174.173 1582.1,-172.502 1583.9,-170.816 1585.56,-169.113 1587.1,-167.391 1588.56,-165.649 1589.96,-163.884 1591.34,-162.095 1592.72,-160.279 1594.14,-158.432 1595.64,-156.551 1597.23,-154.632 1598.95,-152.672 1600.84,-150.667 1602.92,-148.614 1605.22,-146.509 1607.78,-144.347 1610.26,-142.353 1612.79,-140.359 1615.35,-138.368 1617.95,-136.383 1620.57,-134.408 1623.22,-132.444 1625.88,-130.494 1628.55,-128.561 1631.22,-126.647 1633.9,-124.755 1636.56,-122.888 1639.22,-121.047 1641.86,-119.235 1644.48,-117.456 1647.06,-115.711 1649.62,-114.004 1652.13,-112.336 1654.6,-110.711 1657.02,-109.13 1659.38,-107.596 1659.38,-107.596 1657,-109.096 1654.56,-110.643 1652.06,-112.234 1649.53,-113.866 1646.95,-115.538 1644.34,-117.247 1641.69,-118.989 1639.03,-120.764 1636.35,-122.568 1633.65,-124.399 1630.95,-126.255 1628.24,-128.132 1625.54,-130.029 1622.85,-131.944 1620.18,-133.872 1617.52,-135.814 1614.89,-137.764 1612.3,-139.723 1609.74,-141.686 1607.22,-143.653 1604.6,-145.797 1602.24,-147.894 1600.11,-149.944 1598.17,-151.949 1596.4,-153.909 1594.76,-155.827 1593.23,-157.703 1591.77,-159.538 1590.36,-161.335 1588.96,-163.095 1587.55,-164.82 1586.1,-166.512 1584.57,-168.175 1582.93,-169.811 1581.16,-171.425 1579.21,-173.02 1577.07,-174.599 1574.7,-176.165 1572.06,-177.721 1569.13,-179.269 1564.56,-181.388 1559.4,-183.485 1553.68,-185.557 1547.42,-187.603 1540.69,-189.62 1533.5,-191.607 1525.9,-193.561 1517.92,-195.481 1509.61,-197.365 1500.99,-199.213 1492.11,-201.021 1483,-202.79 1473.7,-204.517 1464.24,-206.201 1454.66,-207.84 1445.01,-209.433 1435.31,-210.979 1425.6,-212.476 1415.92,-213.923 1406.3,-215.318 1406.9,-219.273"/>
</g>
<!-- CodeBERT.GraphCodeBERT.codesearch&#45;&gt;model -->
<g id="edge23" class="edge"><title>CodeBERT.GraphCodeBERT.codesearch&#45;&gt;model</title>
<polygon fill="#dfe0df" stroke="none" stroke-width="4" points="1397.16,-217.935 1406.6,-216.372 1416.27,-214.763 1426.15,-213.109 1436.22,-211.412 1446.46,-209.676 1456.85,-207.901 1467.37,-206.092 1478,-204.249 1488.73,-202.375 1499.54,-200.473 1510.4,-198.545 1521.3,-196.593 1532.22,-194.619 1543.13,-192.625 1554.03,-190.615 1564.89,-188.59 1575.7,-186.553 1586.42,-184.505 1597.06,-182.45 1607.57,-180.389 1610.17,-179.873 1612.79,-179.346 1615.43,-178.807 1618.09,-178.259 1620.76,-177.703 1623.44,-177.141 1626.12,-176.572 1628.8,-175.999 1631.47,-175.423 1634.13,-174.845 1636.78,-174.266 1639.4,-173.688 1642.01,-173.112 1644.58,-172.538 1647.12,-171.969 1649.62,-171.406 1652.07,-170.85 1654.49,-170.301 1656.84,-169.762 1659.15,-169.234 1659.15,-169.234 1656.84,-169.727 1654.47,-170.231 1652.05,-170.743 1649.59,-171.263 1647.08,-171.788 1644.53,-172.319 1641.95,-172.854 1639.34,-173.391 1636.71,-173.929 1634.05,-174.468 1631.38,-175.006 1628.7,-175.542 1626.02,-176.075 1623.33,-176.603 1620.65,-177.125 1617.97,-177.641 1615.3,-178.148 1612.66,-178.647 1610.03,-179.135 1607.43,-179.611 1596.88,-181.513 1586.22,-183.408 1575.47,-185.294 1564.64,-187.169 1553.75,-189.03 1542.83,-190.876 1531.88,-192.704 1520.94,-194.514 1510.02,-196.302 1499.13,-198.066 1488.3,-199.805 1477.55,-201.517 1466.89,-203.199 1456.35,-204.85 1445.94,-206.468 1435.68,-208.05 1425.59,-209.595 1415.69,-211.1 1406,-212.563 1396.54,-213.983 1397.16,-217.935"/>
</g>
<!-- CodeBERT.GraphCodeBERT.codesearch.parser -->
<g id="node22" class="node"><title>CodeBERT.GraphCodeBERT.codesearch.parser</title>
<polygon fill="white" stroke="#dfe0df" points="933,-180 930,-184 909,-184 906,-180 652,-180 652,-144 933,-144 933,-180"/>
<text text-anchor="middle" x="792.5" y="-158.3" font-family="Times,serif" font-size="14.00">CodeBERT.GraphCodeBERT.codesearch.parser</text>
</g>
<!-- CodeBERT.GraphCodeBERT.codesearch&#45;&gt;CodeBERT.GraphCodeBERT.codesearch.parser -->
<g id="edge16" class="edge"><title>CodeBERT.GraphCodeBERT.codesearch&#45;&gt;CodeBERT.GraphCodeBERT.codesearch.parser</title>
<polygon fill="#dfe0de" stroke="none" stroke-width="4" points="1165.05,-213.986 1153.38,-212.418 1141.4,-210.809 1129.16,-209.165 1116.67,-207.489 1103.99,-205.785 1091.13,-204.059 1078.14,-202.315 1065.05,-200.557 1051.9,-198.79 1038.7,-197.019 1025.51,-195.247 1012.35,-193.481 999.263,-191.723 986.273,-189.978 973.417,-188.252 960.73,-186.548 948.245,-184.872 935.995,-183.227 924.015,-181.618 912.338,-180.05 912.338,-180.05 923.989,-181.801 935.942,-183.598 948.165,-185.434 960.622,-187.307 973.281,-189.209 986.108,-191.137 999.069,-193.085 1012.13,-195.048 1025.26,-197.021 1038.42,-198.999 1051.58,-200.977 1064.71,-202.95 1077.77,-204.913 1090.73,-206.861 1103.56,-208.788 1116.22,-210.691 1128.67,-212.562 1140.89,-214.399 1152.84,-216.195 1164.49,-217.946 1165.05,-213.986"/>
</g>
<!-- CodeBERT.GraphCodeBERT.codesearch.parser&#45;&gt;utils -->
<g id="edge17" class="edge"><title>CodeBERT.GraphCodeBERT.codesearch.parser&#45;&gt;utils</title>
<polygon fill="#dfe0df" stroke="none" stroke-width="4" points="872.252,-145.921 883.126,-143.484 894.377,-140.963 905.944,-138.372 917.764,-135.723 929.776,-133.032 941.92,-130.311 954.133,-127.574 966.354,-124.836 978.522,-122.11 990.576,-119.409 1002.45,-116.748 1014.09,-114.14 1025.43,-111.599 1036.41,-109.138 1046.97,-106.772 1057.05,-104.515 1066.58,-102.379 1075.51,-100.379 1083.77,-98.5286 1091.3,-96.8414 1091.3,-96.8414 1083.74,-98.3941 1075.45,-100.097 1066.49,-101.938 1056.92,-103.903 1046.8,-105.981 1036.2,-108.158 1025.18,-110.423 1013.8,-112.761 1002.11,-115.162 990.19,-117.611 978.09,-120.096 965.875,-122.605 953.607,-125.126 941.347,-127.644 929.157,-130.148 917.099,-132.625 905.233,-135.063 893.622,-137.448 882.328,-139.768 871.412,-142.01 872.252,-145.921"/>
</g>
<!-- CodeBERT.GraphCodeBERT.codesearch.parser&#45;&gt;DFG -->
<g id="edge18" class="edge"><title>CodeBERT.GraphCodeBERT.codesearch.parser&#45;&gt;DFG</title>
<polygon fill="#dfe0df" stroke="none" stroke-width="4" points="810.669,-145.38 813.881,-142.25 817.323,-138.949 820.988,-135.494 824.864,-131.905 828.94,-128.202 833.203,-124.407 837.643,-120.54 842.247,-116.622 847.004,-112.673 851.902,-108.714 856.929,-104.765 862.074,-100.848 867.324,-96.982 872.668,-93.1889 878.094,-89.4889 883.591,-85.9026 889.145,-82.4506 894.747,-79.1535 900.383,-76.0319 906.041,-73.1063 915.484,-68.5966 925.175,-64.3267 935.071,-60.2908 945.128,-56.4836 955.299,-52.8995 965.541,-49.533 975.809,-46.3785 986.059,-43.4302 996.244,-40.6825 1006.32,-38.1295 1016.25,-35.7656 1025.97,-33.5848 1035.46,-31.5814 1044.66,-29.7495 1053.53,-28.0834 1062.02,-26.577 1070.1,-25.2245 1077.7,-24.0202 1084.81,-22.958 1091.35,-22.0322 1091.35,-22.0322 1084.79,-22.8746 1077.68,-23.8463 1070.05,-24.9538 1061.96,-26.2037 1053.44,-27.6024 1044.55,-29.1564 1035.32,-30.8722 1025.8,-32.7564 1016.03,-34.8154 1006.07,-37.0558 995.939,-39.4842 985.699,-42.107 975.389,-44.931 965.053,-47.9627 954.736,-51.2089 944.48,-54.6762 934.331,-58.3715 924.331,-62.3015 914.526,-66.4734 904.959,-70.8937 899.196,-73.7806 893.458,-76.8637 887.757,-80.1224 882.105,-83.5361 876.512,-87.0842 870.992,-90.7463 865.555,-94.5019 860.214,-98.3304 854.98,-102.211 849.866,-106.124 844.883,-110.049 840.042,-113.964 835.356,-117.85 830.837,-121.685 826.497,-125.451 822.347,-129.125 818.399,-132.688 814.666,-136.119 811.159,-139.398 807.895,-142.498 810.669,-145.38"/>
</g>
<!-- CodeBERT.GraphCodeBERT.codesearch.parser&#45;&gt;build -->
<g id="edge19" class="edge"><title>CodeBERT.GraphCodeBERT.codesearch.parser&#45;&gt;build</title>
<polygon fill="#dfe0df" stroke="none" stroke-width="4" points="823.936,-145.671 828.008,-143.565 832.234,-141.395 836.598,-139.17 841.081,-136.897 845.667,-134.586 850.336,-132.245 855.071,-129.885 859.853,-127.513 864.663,-125.138 869.485,-122.771 874.3,-120.419 879.089,-118.092 883.834,-115.798 888.518,-113.547 893.123,-111.347 897.629,-109.208 902.02,-107.138 906.276,-105.147 910.38,-103.243 914.314,-101.435 914.314,-101.435 910.311,-103.085 906.134,-104.825 901.8,-106.646 897.33,-108.541 892.74,-110.5 888.049,-112.516 883.277,-114.581 878.441,-116.685 873.56,-118.822 868.653,-120.982 863.737,-123.158 858.831,-125.341 853.954,-127.523 849.125,-129.696 844.36,-131.852 839.68,-133.982 835.102,-136.078 830.645,-138.133 826.327,-140.137 822.169,-142.082 823.936,-145.671"/>
</g>
<!-- CodeBERT.GraphCodeBERT.codesearch.parser&#45;&gt;build -->
<g id="edge20" class="edge"><title>CodeBERT.GraphCodeBERT.codesearch.parser&#45;&gt;build</title>
<polygon fill="#dfe0df" stroke="none" stroke-width="4" points="835.666,-145.7 839.496,-143.874 843.407,-141.999 847.385,-140.081 851.418,-138.126 855.497,-136.141 859.608,-134.129 863.741,-132.099 867.884,-130.054 872.025,-128.001 876.153,-125.946 880.257,-123.894 884.325,-121.85 888.345,-119.822 892.307,-117.814 896.198,-115.832 900.007,-113.882 903.723,-111.969 907.334,-110.1 910.828,-108.28 914.194,-106.514 914.194,-106.514 910.751,-108.124 907.178,-109.783 903.487,-111.485 899.689,-113.226 895.797,-115 891.821,-116.801 887.774,-118.626 883.668,-120.468 879.514,-122.322 875.324,-124.184 871.109,-126.048 866.882,-127.908 862.655,-129.76 858.438,-131.598 854.244,-133.418 850.085,-135.213 845.972,-136.98 841.917,-138.711 837.932,-140.404 834.027,-142.052 835.666,-145.7"/>
</g>
<!-- CodeBERT.GraphCodeBERT.refinement&#45;&gt;README -->
<g id="edge30" class="edge"><title>CodeBERT.GraphCodeBERT.refinement&#45;&gt;README</title>
<polygon fill="#dfe0df" stroke="none" stroke-width="4" points="1668.43,-218.565 1681.14,-216.667 1694.01,-214.72 1706.98,-212.734 1719.96,-210.715 1732.89,-208.672 1745.69,-206.614 1758.29,-204.548 1770.62,-202.482 1782.6,-200.424 1794.16,-198.384 1805.23,-196.368 1815.74,-194.384 1825.61,-192.442 1834.77,-190.548 1843.14,-188.711 1850.66,-186.938 1857.26,-185.238 1862.86,-183.616 1867.4,-182.078 1870.79,-180.63 1875.99,-177.895 1881.09,-174.936 1886.12,-171.77 1891.06,-168.42 1895.91,-164.909 1900.66,-161.259 1905.3,-157.493 1909.82,-153.634 1914.23,-149.704 1918.5,-145.725 1922.64,-141.721 1926.63,-137.715 1930.47,-133.728 1934.16,-129.783 1937.67,-125.904 1941.02,-122.112 1944.18,-118.43 1947.15,-114.882 1949.93,-111.489 1952.5,-108.274 1952.5,-108.274 1949.89,-111.456 1947.07,-114.812 1944.05,-118.322 1940.85,-121.961 1937.46,-125.708 1933.9,-129.539 1930.17,-133.432 1926.28,-137.365 1922.24,-141.314 1918.06,-145.257 1913.75,-149.172 1909.31,-153.035 1904.75,-156.825 1900.08,-160.517 1895.31,-164.091 1890.44,-167.522 1885.49,-170.789 1880.46,-173.868 1875.35,-176.738 1870.21,-179.37 1866.89,-180.732 1862.42,-182.185 1856.85,-183.72 1850.28,-185.327 1842.76,-186.998 1834.39,-188.723 1825.23,-190.497 1815.35,-192.311 1804.84,-194.159 1793.76,-196.032 1782.18,-197.924 1770.19,-199.828 1757.85,-201.735 1745.23,-203.64 1732.41,-205.535 1719.47,-207.412 1706.47,-209.265 1693.49,-211.086 1680.6,-212.869 1667.87,-214.605 1668.43,-218.565"/>
</g>
<!-- CodeBERT.GraphCodeBERT.refinement&#45;&gt;bleu -->
<g id="edge31" class="edge"><title>CodeBERT.GraphCodeBERT.refinement&#45;&gt;bleu</title>
<polygon fill="#dfe0df" stroke="none" stroke-width="4" points="1646.21,-217.926 1653.09,-216.485 1660.09,-214.993 1667.2,-213.451 1674.4,-211.86 1681.7,-210.221 1689.06,-208.534 1696.49,-206.799 1703.97,-205.017 1711.49,-203.189 1719.04,-201.315 1726.61,-199.396 1734.18,-197.432 1741.74,-195.423 1749.29,-193.371 1756.81,-191.276 1764.29,-189.138 1771.71,-186.957 1779.07,-184.735 1786.36,-182.473 1793.55,-180.169 1794.24,-179.945 1794.92,-179.716 1795.61,-179.484 1796.3,-179.247 1796.99,-179.006 1797.69,-178.761 1798.38,-178.513 1799.08,-178.262 1799.78,-178.007 1800.47,-177.749 1801.17,-177.488 1801.87,-177.225 1802.56,-176.959 1803.26,-176.691 1803.96,-176.42 1804.65,-176.148 1805.34,-175.873 1806.03,-175.598 1806.72,-175.32 1807.41,-175.042 1807.41,-175.042 1806.71,-175.304 1806.02,-175.564 1805.32,-175.824 1804.62,-176.081 1803.92,-176.337 1803.22,-176.59 1802.52,-176.842 1801.82,-177.091 1801.12,-177.337 1800.41,-177.581 1799.71,-177.822 1799.01,-178.06 1798.31,-178.294 1797.61,-178.525 1796.91,-178.753 1796.21,-178.977 1795.52,-179.197 1794.82,-179.412 1794.13,-179.624 1793.45,-179.831 1786.2,-181.96 1778.87,-184.046 1771.46,-186.09 1764,-188.089 1756.48,-190.046 1748.92,-191.958 1741.34,-193.826 1733.74,-195.651 1726.13,-197.43 1718.53,-199.165 1710.95,-200.855 1703.4,-202.5 1695.89,-204.099 1688.43,-205.653 1681.04,-207.16 1673.72,-208.622 1666.49,-210.037 1659.36,-211.405 1652.34,-212.727 1645.44,-214.002 1646.21,-217.926"/>
</g>
<!-- CodeBERT.GraphCodeBERT.refinement&#45;&gt;run -->
<g id="edge32" class="edge"><title>CodeBERT.GraphCodeBERT.refinement&#45;&gt;run</title>
<polygon fill="#dfe0df" stroke="none" stroke-width="4" points="1568.71,-217.505 1570.53,-215.942 1572.38,-214.332 1574.28,-212.68 1576.21,-210.989 1578.18,-209.261 1580.16,-207.499 1582.17,-205.706 1584.2,-203.886 1586.25,-202.041 1588.3,-200.173 1590.35,-198.286 1592.41,-196.383 1594.47,-194.466 1596.51,-192.539 1598.55,-190.604 1600.57,-188.664 1602.57,-186.722 1604.54,-184.781 1606.49,-182.844 1608.4,-180.912 1611.96,-177.262 1615.54,-173.536 1619.11,-169.748 1622.69,-165.91 1626.25,-162.036 1629.78,-158.138 1633.29,-154.23 1636.76,-150.324 1640.18,-146.432 1643.55,-142.569 1646.85,-138.747 1650.08,-134.979 1653.23,-131.277 1656.29,-127.655 1659.25,-124.126 1662.1,-120.703 1664.84,-117.398 1667.45,-114.225 1669.94,-111.196 1672.28,-108.325 1672.28,-108.325 1669.86,-111.133 1667.3,-114.094 1664.6,-117.197 1661.78,-120.427 1658.84,-123.772 1655.78,-127.219 1652.63,-130.757 1649.39,-134.371 1646.06,-138.049 1642.66,-141.779 1639.2,-145.547 1635.68,-149.341 1632.11,-153.149 1628.51,-156.956 1624.88,-160.751 1621.22,-164.52 1617.56,-168.251 1613.9,-171.931 1610.24,-175.547 1606.6,-179.088 1604.65,-180.954 1602.66,-182.827 1600.65,-184.703 1598.61,-186.581 1596.55,-188.456 1594.47,-190.326 1592.39,-192.189 1590.29,-194.041 1588.2,-195.88 1586.1,-197.703 1584.01,-199.507 1581.93,-201.29 1579.86,-203.048 1577.81,-204.779 1575.78,-206.48 1573.79,-208.148 1571.82,-209.781 1569.88,-211.376 1567.99,-212.929 1566.14,-214.441 1568.71,-217.505"/>
</g>
<!-- CodeBERT.GraphCodeBERT.refinement&#45;&gt;model -->
<g id="edge33" class="edge"><title>CodeBERT.GraphCodeBERT.refinement&#45;&gt;model</title>
<polygon fill="#dfe0df" stroke="none" stroke-width="4" points="1581.64,-217.665 1585.27,-215.744 1589.01,-213.769 1592.83,-211.747 1596.73,-209.684 1600.7,-207.587 1604.71,-205.464 1608.77,-203.32 1612.85,-201.162 1616.94,-198.998 1621.03,-196.834 1625.11,-194.676 1629.17,-192.532 1633.18,-190.408 1637.15,-188.31 1641.05,-186.247 1644.88,-184.224 1648.61,-182.247 1652.25,-180.325 1655.77,-178.463 1659.16,-176.669 1659.16,-176.669 1655.69,-178.307 1652.09,-180.006 1648.37,-181.76 1644.55,-183.564 1640.63,-185.411 1636.64,-187.294 1632.58,-189.209 1628.47,-191.147 1624.33,-193.105 1620.15,-195.074 1615.97,-197.049 1611.78,-199.025 1607.6,-200.994 1603.46,-202.951 1599.35,-204.889 1595.29,-206.803 1591.3,-208.685 1587.39,-210.531 1583.57,-212.334 1579.85,-214.087 1581.64,-217.665"/>
</g>
<!-- CodeBERT.GraphCodeBERT.refinement.parser -->
<g id="node24" class="node"><title>CodeBERT.GraphCodeBERT.refinement.parser</title>
<polygon fill="white" stroke="#dfe0df" points="1231.5,-180 1228.5,-184 1207.5,-184 1204.5,-180 951.5,-180 951.5,-144 1231.5,-144 1231.5,-180"/>
<text text-anchor="middle" x="1091.5" y="-158.3" font-family="Times,serif" font-size="14.00">CodeBERT.GraphCodeBERT.refinement.parser</text>
</g>
<!-- CodeBERT.GraphCodeBERT.refinement&#45;&gt;CodeBERT.GraphCodeBERT.refinement.parser -->
<g id="edge25" class="edge"><title>CodeBERT.GraphCodeBERT.refinement&#45;&gt;CodeBERT.GraphCodeBERT.refinement.parser</title>
<polygon fill="#dfe0de" stroke="none" stroke-width="4" points="1436.08,-213.989 1425.28,-212.421 1414.2,-210.813 1402.87,-209.168 1391.33,-207.491 1379.59,-205.788 1367.71,-204.061 1355.69,-202.317 1343.58,-200.559 1331.41,-198.792 1319.21,-197.021 1307.01,-195.249 1294.84,-193.482 1282.73,-191.724 1270.71,-189.979 1258.82,-188.253 1247.09,-186.549 1235.54,-184.872 1224.21,-183.227 1213.13,-181.618 1202.33,-180.05 1202.33,-180.05 1213.1,-181.801 1224.15,-183.597 1235.45,-185.434 1246.97,-187.306 1258.68,-189.208 1270.54,-191.136 1282.52,-193.084 1294.6,-195.046 1306.74,-197.019 1318.91,-198.997 1331.08,-200.975 1343.22,-202.948 1355.29,-204.911 1367.27,-206.859 1379.13,-208.786 1390.84,-210.688 1402.35,-212.56 1413.65,-214.396 1424.7,-216.192 1435.47,-217.942 1436.08,-213.989"/>
</g>
<!-- CodeBERT.GraphCodeBERT.refinement.parser&#45;&gt;utils -->
<g id="edge26" class="edge"><title>CodeBERT.GraphCodeBERT.refinement.parser&#45;&gt;utils</title>
<polygon fill="#dfe0df" stroke="none" stroke-width="4" points="1100.04,-144.416 1100.59,-142.733 1101.15,-141.008 1101.73,-139.244 1102.32,-137.448 1102.91,-135.624 1103.52,-133.776 1104.13,-131.91 1104.74,-130.029 1105.36,-128.14 1105.98,-126.246 1106.59,-124.352 1107.21,-122.463 1107.83,-120.585 1108.43,-118.72 1109.04,-116.875 1109.63,-115.054 1110.22,-113.262 1110.79,-111.503 1111.35,-109.782 1111.9,-108.104 1111.9,-108.104 1111.18,-109.716 1110.44,-111.368 1109.69,-113.057 1108.92,-114.779 1108.14,-116.527 1107.34,-118.299 1106.54,-120.09 1105.74,-121.894 1104.92,-123.708 1104.11,-125.527 1103.3,-127.346 1102.49,-129.16 1101.68,-130.966 1100.88,-132.758 1100.08,-134.533 1099.3,-136.285 1098.53,-138.01 1097.77,-139.703 1097.03,-141.36 1096.31,-142.977 1100.04,-144.416"/>
</g>
<!-- CodeBERT.GraphCodeBERT.refinement.parser&#45;&gt;DFG -->
<g id="edge27" class="edge"><title>CodeBERT.GraphCodeBERT.refinement.parser&#45;&gt;DFG</title>
<polygon fill="#dfe0df" stroke="none" stroke-width="4" points="1087.78,-143.349 1086.97,-140.561 1086.16,-137.631 1085.35,-134.557 1084.57,-131.352 1083.82,-128.028 1083.1,-124.598 1082.44,-121.074 1081.84,-117.468 1081.31,-113.791 1080.86,-110.057 1080.51,-106.278 1080.26,-102.465 1080.12,-98.6314 1080.11,-94.7885 1080.22,-90.9486 1080.49,-87.1238 1080.91,-83.326 1081.49,-79.5672 1082.25,-75.8591 1083.19,-72.2091 1083.79,-70.2478 1084.46,-68.2863 1085.18,-66.3308 1085.96,-64.3835 1086.79,-62.4469 1087.68,-60.5232 1088.6,-58.6148 1089.57,-56.7241 1090.57,-54.8531 1091.61,-53.0044 1092.67,-51.18 1093.76,-49.3823 1094.87,-47.6135 1096,-45.8757 1097.14,-44.1713 1098.29,-42.5025 1099.44,-40.8714 1100.6,-39.2802 1101.75,-37.7311 1102.89,-36.2264 1102.89,-36.2264 1101.69,-37.6905 1100.49,-39.1992 1099.28,-40.7506 1098.07,-42.3427 1096.86,-43.9736 1095.66,-45.6413 1094.47,-47.3439 1093.29,-49.0794 1092.13,-50.846 1091,-52.6416 1089.89,-54.4645 1088.82,-56.3127 1087.78,-58.1843 1086.77,-60.0775 1085.81,-61.9904 1084.9,-63.9212 1084.04,-65.8681 1083.24,-67.8292 1082.49,-69.8029 1081.81,-71.7909 1080.71,-75.4746 1079.81,-79.2336 1079.08,-83.0503 1078.51,-86.9118 1078.11,-90.8052 1077.85,-94.7178 1077.73,-98.6367 1077.73,-102.549 1077.85,-106.443 1078.08,-110.305 1078.4,-114.123 1078.81,-117.884 1079.29,-121.575 1079.84,-125.185 1080.44,-128.7 1081.09,-132.107 1081.77,-135.396 1082.48,-138.552 1083.2,-141.563 1083.92,-144.404 1087.78,-143.349"/>
</g>
<!-- CodeBERT.GraphCodeBERT.refinement.parser&#45;&gt;build -->
<g id="edge28" class="edge"><title>CodeBERT.GraphCodeBERT.refinement.parser&#45;&gt;build</title>
<polygon fill="#dfe0df" stroke="none" stroke-width="4" points="1049.72,-142.05 1045.77,-140.389 1041.73,-138.684 1037.62,-136.939 1033.45,-135.159 1029.23,-133.349 1024.98,-131.516 1020.7,-129.663 1016.42,-127.797 1012.13,-125.922 1007.86,-124.045 1003.62,-122.17 999.41,-120.303 995.252,-118.449 991.156,-116.613 987.134,-114.8 983.197,-113.017 979.359,-111.268 975.63,-109.559 972.024,-107.894 968.552,-106.279 968.552,-106.279 971.948,-108.049 975.476,-109.875 979.125,-111.751 982.882,-113.672 986.736,-115.632 990.674,-117.624 994.685,-119.644 998.758,-121.685 1002.88,-123.741 1007.04,-125.807 1011.22,-127.876 1015.42,-129.943 1019.62,-132.003 1023.81,-134.048 1027.98,-136.074 1032.12,-138.074 1036.21,-140.043 1040.25,-141.975 1044.21,-143.863 1048.09,-145.702 1049.72,-142.05"/>
</g>
<!-- CodeBERT.GraphCodeBERT.refinement.parser&#45;&gt;build -->
<g id="edge29" class="edge"><title>CodeBERT.GraphCodeBERT.refinement.parser&#45;&gt;build</title>
<polygon fill="#dfe0df" stroke="none" stroke-width="4" points="1061.58,-142.079 1057.39,-140.135 1053.05,-138.131 1048.56,-136.076 1043.95,-133.98 1039.24,-131.85 1034.44,-129.695 1029.58,-127.522 1024.67,-125.34 1019.73,-123.157 1014.79,-120.981 1009.85,-118.821 1004.93,-116.685 1000.07,-114.58 995.264,-112.516 990.544,-110.5 985.925,-108.541 981.426,-106.646 977.066,-104.825 972.862,-103.085 968.835,-101.435 968.835,-101.435 972.794,-103.243 976.924,-105.147 981.208,-107.139 985.627,-109.208 990.163,-111.348 994.798,-113.548 999.513,-115.799 1004.29,-118.093 1009.11,-120.42 1013.96,-122.772 1018.81,-125.14 1023.66,-127.514 1028.47,-129.886 1033.24,-132.247 1037.94,-134.587 1042.56,-136.899 1047.07,-139.172 1051.47,-141.397 1055.72,-143.567 1059.82,-145.673 1061.58,-142.079"/>
</g>
<!-- CodeBERT.GraphCodeBERT.translation&#45;&gt;README -->
<g id="edge40" class="edge"><title>CodeBERT.GraphCodeBERT.translation&#45;&gt;README</title>
<polygon fill="#dfe0df" stroke="none" stroke-width="4" points="1885.89,-217.812 1889,-216.554 1892.12,-215.234 1895.23,-213.858 1898.32,-212.425 1901.4,-210.933 1904.45,-209.38 1907.48,-207.767 1910.47,-206.091 1913.43,-204.352 1916.35,-202.548 1919.22,-200.679 1922.04,-198.743 1924.81,-196.738 1927.52,-194.665 1930.16,-192.521 1932.74,-190.306 1935.25,-188.019 1937.68,-185.658 1940.03,-183.222 1942.3,-180.705 1944.89,-177.533 1947.28,-174.198 1949.48,-170.726 1951.49,-167.135 1953.33,-163.444 1955,-159.67 1956.51,-155.832 1957.88,-151.947 1959.1,-148.034 1960.18,-144.11 1961.14,-140.192 1961.98,-136.3 1962.7,-132.451 1963.33,-128.662 1963.85,-124.953 1964.29,-121.34 1964.64,-117.842 1964.93,-114.477 1965.14,-111.263 1965.3,-108.218 1965.3,-108.218 1965.06,-111.257 1964.75,-114.461 1964.38,-117.813 1963.93,-121.294 1963.39,-124.886 1962.77,-128.568 1962.04,-132.324 1961.21,-136.134 1960.27,-139.98 1959.21,-143.843 1958.03,-147.704 1956.71,-151.545 1955.26,-155.346 1953.67,-159.089 1951.92,-162.756 1950.01,-166.327 1947.95,-169.784 1945.71,-173.109 1943.3,-176.283 1940.7,-179.295 1938.42,-181.683 1936.06,-183.999 1933.62,-186.241 1931.11,-188.409 1928.53,-190.505 1925.88,-192.529 1923.18,-194.483 1920.42,-196.369 1917.6,-198.187 1914.74,-199.939 1911.84,-201.626 1908.89,-203.248 1905.91,-204.809 1902.9,-206.308 1899.87,-207.746 1896.81,-209.126 1893.74,-210.448 1890.65,-211.713 1887.56,-212.923 1884.44,-214.084 1885.89,-217.812"/>
</g>
<!-- CodeBERT.GraphCodeBERT.translation&#45;&gt;bleu -->
<g id="edge41" class="edge"><title>CodeBERT.GraphCodeBERT.translation&#45;&gt;bleu</title>
<polygon fill="#dfe0df" stroke="none" stroke-width="4" points="1815.28,-216.439 1815.85,-214.755 1816.44,-213.028 1817.04,-211.264 1817.65,-209.467 1818.28,-207.641 1818.91,-205.792 1819.54,-203.925 1820.18,-202.043 1820.83,-200.153 1821.47,-198.257 1822.12,-196.362 1822.76,-194.473 1823.4,-192.593 1824.04,-190.727 1824.67,-188.881 1825.29,-187.058 1825.9,-185.265 1826.5,-183.505 1827.09,-181.783 1827.66,-180.104 1827.66,-180.104 1826.91,-181.714 1826.15,-183.366 1825.37,-185.054 1824.58,-186.774 1823.77,-188.522 1822.95,-190.293 1822.13,-192.082 1821.29,-193.885 1820.46,-195.698 1819.62,-197.515 1818.78,-199.333 1817.94,-201.146 1817.11,-202.951 1816.28,-204.742 1815.46,-206.515 1814.65,-208.266 1813.86,-209.99 1813.08,-211.682 1812.31,-213.338 1811.56,-214.954 1815.28,-216.439"/>
</g>
<!-- CodeBERT.GraphCodeBERT.translation&#45;&gt;run -->
<g id="edge42" class="edge"><title>CodeBERT.GraphCodeBERT.translation&#45;&gt;run</title>
<polygon fill="#dfe0df" stroke="none" stroke-width="4" points="1838.42,-217.54 1840.35,-216.159 1842.29,-214.72 1844.22,-213.231 1846.16,-211.694 1848.08,-210.108 1849.99,-208.474 1851.87,-206.792 1853.73,-205.063 1855.56,-203.286 1857.35,-201.461 1859.09,-199.59 1860.79,-197.673 1862.43,-195.709 1864.02,-193.699 1865.53,-191.643 1866.98,-189.541 1868.36,-187.394 1869.65,-185.203 1870.85,-182.966 1871.95,-180.698 1872.94,-178.533 1873.86,-176.453 1874.7,-174.438 1875.48,-172.479 1876.17,-170.568 1876.77,-168.696 1877.27,-166.856 1877.67,-165.041 1877.95,-163.242 1878.12,-161.454 1878.15,-159.673 1878.04,-157.893 1877.79,-156.111 1877.39,-154.324 1876.83,-152.529 1876.11,-150.719 1875.23,-148.89 1874.18,-147.035 1872.95,-145.146 1871.52,-143.177 1868.01,-139.375 1863.5,-135.729 1858.11,-132.254 1851.92,-128.934 1845.02,-125.761 1837.48,-122.731 1829.39,-119.84 1820.84,-117.087 1811.91,-114.472 1802.7,-111.994 1793.28,-109.654 1783.75,-107.451 1774.19,-105.387 1764.68,-103.461 1755.33,-101.673 1746.21,-100.025 1737.41,-98.5164 1729.02,-97.1478 1721.14,-95.9198 1713.83,-94.8329 1713.83,-94.8329 1721.12,-96.0344 1728.98,-97.3861 1737.35,-98.886 1746.12,-100.532 1755.2,-102.322 1764.52,-104.255 1773.98,-106.328 1783.5,-108.54 1792.97,-110.887 1802.33,-113.369 1811.48,-115.983 1820.32,-118.726 1828.78,-121.596 1836.75,-124.59 1844.16,-127.704 1850.91,-130.933 1856.9,-134.27 1862.05,-137.704 1866.26,-141.218 1869.48,-144.823 1870.75,-146.631 1871.87,-148.412 1872.81,-150.135 1873.59,-151.807 1874.2,-153.436 1874.67,-155.03 1875,-156.6 1875.19,-158.157 1875.26,-159.711 1875.21,-161.274 1875.04,-162.857 1874.76,-164.469 1874.37,-166.119 1873.88,-167.814 1873.28,-169.561 1872.6,-171.368 1871.83,-173.24 1870.97,-175.184 1870.04,-177.207 1869.05,-179.302 1867.96,-181.457 1866.78,-183.561 1865.52,-185.626 1864.18,-187.651 1862.77,-189.636 1861.28,-191.581 1859.74,-193.484 1858.13,-195.346 1856.47,-197.166 1854.75,-198.943 1853,-200.677 1851.21,-202.367 1849.38,-204.014 1847.53,-205.616 1845.65,-207.172 1843.76,-208.684 1841.86,-210.149 1839.94,-211.568 1838.03,-212.94 1836.11,-214.274 1838.42,-217.54"/>
</g>
<!-- CodeBERT.GraphCodeBERT.translation&#45;&gt;model -->
<g id="edge43" class="edge"><title>CodeBERT.GraphCodeBERT.translation&#45;&gt;model</title>
<polygon fill="#dfe0df" stroke="none" stroke-width="4" points="1778.15,-214.149 1775.15,-212.504 1772.07,-210.816 1768.91,-209.089 1765.7,-207.328 1762.43,-205.539 1759.12,-203.727 1755.77,-201.896 1752.41,-200.052 1749.02,-198.2 1745.64,-196.345 1742.25,-194.492 1738.88,-192.646 1735.53,-190.813 1732.21,-188.997 1728.94,-187.203 1725.71,-185.437 1722.55,-183.704 1719.45,-182.008 1716.43,-180.355 1713.5,-178.75 1713.5,-178.75 1716.34,-180.512 1719.26,-182.326 1722.27,-184.187 1725.33,-186.09 1728.46,-188.028 1731.63,-189.997 1734.84,-191.99 1738.09,-194.003 1741.36,-196.029 1744.63,-198.062 1747.92,-200.099 1751.19,-202.131 1754.46,-204.155 1757.7,-206.165 1760.9,-208.154 1764.07,-210.118 1767.18,-212.05 1770.24,-213.946 1773.23,-215.799 1776.14,-217.604 1778.15,-214.149"/>
</g>
<!-- CodeBERT.GraphCodeBERT.translation.parser -->
<g id="node26" class="node"><title>CodeBERT.GraphCodeBERT.translation.parser</title>
<polygon fill="white" stroke="#dfe0df" points="1527.5,-180 1524.5,-184 1503.5,-184 1500.5,-180 1249.5,-180 1249.5,-144 1527.5,-144 1527.5,-180"/>
<text text-anchor="middle" x="1388.5" y="-158.3" font-family="Times,serif" font-size="14.00">CodeBERT.GraphCodeBERT.translation.parser</text>
</g>
<!-- CodeBERT.GraphCodeBERT.translation&#45;&gt;CodeBERT.GraphCodeBERT.translation.parser -->
<g id="edge35" class="edge"><title>CodeBERT.GraphCodeBERT.translation&#45;&gt;CodeBERT.GraphCodeBERT.translation.parser</title>
<polygon fill="#dfe0de" stroke="none" stroke-width="4" points="1705.11,-213.993 1695.19,-212.425 1685.01,-210.816 1674.6,-209.171 1663.99,-207.495 1653.21,-205.791 1642.28,-204.064 1631.24,-202.32 1620.11,-200.562 1608.93,-198.794 1597.72,-197.023 1586.51,-195.251 1575.32,-193.484 1564.2,-191.725 1553.15,-189.98 1542.23,-188.254 1531.44,-186.55 1520.83,-184.873 1510.42,-183.228 1500.24,-181.618 1490.31,-180.05 1490.31,-180.05 1500.21,-181.801 1510.36,-183.597 1520.74,-185.433 1531.32,-187.305 1542.07,-189.207 1552.96,-191.135 1563.97,-193.082 1575.06,-195.045 1586.21,-197.018 1597.39,-198.995 1608.57,-200.973 1619.72,-202.946 1630.81,-204.908 1641.81,-206.856 1652.7,-208.783 1663.45,-210.685 1674.03,-212.556 1684.41,-214.392 1694.56,-216.188 1704.45,-217.938 1705.11,-213.993"/>
</g>
<!-- CodeBERT.GraphCodeBERT.translation.parser&#45;&gt;utils -->
<g id="edge36" class="edge"><title>CodeBERT.GraphCodeBERT.translation.parser&#45;&gt;utils</title>
<polygon fill="#dfe0df" stroke="none" stroke-width="4" points="1323.3,-142.03 1314.59,-139.873 1305.59,-137.644 1296.34,-135.354 1286.89,-133.015 1277.29,-130.636 1267.58,-128.231 1257.8,-125.809 1248,-123.384 1238.23,-120.964 1228.53,-118.563 1218.96,-116.191 1209.54,-113.86 1200.34,-111.58 1191.39,-109.364 1182.74,-107.222 1174.43,-105.166 1166.52,-103.207 1159.05,-101.357 1152.06,-99.6257 1145.6,-98.0258 1145.6,-98.0258 1152.02,-99.7664 1158.97,-101.65 1166.4,-103.663 1174.27,-105.794 1182.53,-108.031 1191.13,-110.362 1200.03,-112.773 1209.18,-115.253 1218.54,-117.789 1228.07,-120.37 1237.71,-122.983 1247.42,-125.615 1257.16,-128.254 1266.89,-130.889 1276.54,-133.506 1286.09,-136.093 1295.49,-138.639 1304.68,-141.13 1313.63,-143.555 1322.29,-145.902 1323.3,-142.03"/>
</g>
<!-- CodeBERT.GraphCodeBERT.translation.parser&#45;&gt;DFG -->
<g id="edge37" class="edge"><title>CodeBERT.GraphCodeBERT.translation.parser&#45;&gt;DFG</title>
<polygon fill="#dfe0df" stroke="none" stroke-width="4" points="1356.86,-142.101 1348.36,-137.723 1339.15,-132.977 1329.31,-127.907 1318.92,-122.554 1308.07,-116.962 1296.83,-111.172 1285.3,-105.228 1273.54,-99.1714 1261.65,-93.0451 1249.71,-86.8915 1237.79,-80.7531 1225.99,-74.6724 1214.38,-68.6918 1203.05,-62.8539 1192.08,-57.201 1181.55,-51.7757 1171.55,-46.6205 1162.15,-41.7779 1153.44,-37.2902 1145.5,-33.2001 1145.5,-33.2001 1153.37,-37.4232 1162,-42.0567 1171.32,-47.0568 1181.24,-52.3796 1191.67,-57.9812 1202.55,-63.8179 1213.78,-69.8456 1225.28,-76.0206 1236.98,-82.299 1248.79,-88.637 1260.63,-94.9906 1272.41,-101.316 1284.06,-107.569 1295.5,-113.707 1306.64,-119.685 1317.4,-125.459 1327.69,-130.985 1337.45,-136.221 1346.58,-141.121 1355,-145.642 1356.86,-142.101"/>
</g>
<!-- CodeBERT.GraphCodeBERT.translation.parser&#45;&gt;build -->
<g id="edge38" class="edge"><title>CodeBERT.GraphCodeBERT.translation.parser&#45;&gt;build</title>
<polygon fill="#dfe0df" stroke="none" stroke-width="4" points="1274.14,-141.989 1258.43,-139.669 1242.21,-137.267 1225.56,-134.795 1208.59,-132.269 1191.38,-129.701 1174.03,-127.107 1156.63,-124.501 1139.28,-121.895 1122.07,-119.305 1105.09,-116.744 1088.44,-114.226 1072.21,-111.765 1056.49,-109.376 1041.37,-107.072 1026.96,-104.867 1013.34,-102.776 1000.61,-100.812 988.862,-98.9899 978.185,-97.3228 968.675,-95.8251 968.675,-95.8251 978.165,-97.4458 988.819,-99.251 1000.55,-101.226 1013.25,-103.354 1026.84,-105.622 1041.22,-108.013 1056.31,-110.512 1071.99,-113.105 1088.19,-115.775 1104.81,-118.509 1121.76,-121.289 1138.93,-124.103 1156.25,-126.933 1173.61,-129.765 1190.93,-132.583 1208.1,-135.373 1225.04,-138.119 1241.66,-140.806 1257.85,-143.419 1273.53,-145.942 1274.14,-141.989"/>
</g>
<!-- CodeBERT.GraphCodeBERT.translation.parser&#45;&gt;build -->
<g id="edge39" class="edge"><title>CodeBERT.GraphCodeBERT.translation.parser&#45;&gt;build</title>
<polygon fill="#dfe0df" stroke="none" stroke-width="4" points="1285.92,-141.99 1270.08,-139.573 1253.61,-137.067 1236.61,-134.488 1219.19,-131.852 1201.46,-129.176 1183.51,-126.473 1165.46,-123.761 1147.41,-121.054 1129.46,-118.37 1111.72,-115.722 1094.29,-113.128 1077.28,-110.602 1060.79,-108.161 1044.93,-105.82 1029.8,-103.595 1015.5,-101.501 1002.14,-99.5551 989.83,-97.772 978.667,-96.1677 968.758,-94.7579 968.758,-94.7579 978.648,-96.2912 989.79,-98.0346 1002.08,-99.9711 1015.41,-102.084 1029.68,-104.355 1044.78,-106.769 1060.62,-109.308 1077.07,-111.954 1094.05,-114.692 1111.45,-117.503 1129.15,-120.372 1147.07,-123.28 1165.08,-126.211 1183.1,-129.148 1201,-132.074 1218.7,-134.972 1236.08,-137.825 1253.05,-140.615 1269.49,-143.326 1285.3,-145.941 1285.92,-141.99"/>
</g>
<!-- CodeBERT.GraphCodeBERT.clonedetection&#45;&gt;README -->
<g id="edge52" class="edge"><title>CodeBERT.GraphCodeBERT.clonedetection&#45;&gt;README</title>
<polygon fill="#dfe0df" stroke="none" stroke-width="4" points="1144.39,-218.873 1144.86,-218.826 1145.33,-218.78 1145.79,-218.733 1146.26,-218.687 1146.73,-218.64 1147.2,-218.594 1147.66,-218.548 1148.13,-218.503 1148.59,-218.457 1149.06,-218.412 1149.52,-218.367 1149.99,-218.322 1150.45,-218.277 1150.91,-218.232 1151.38,-218.188 1151.84,-218.144 1152.3,-218.1 1152.76,-218.056 1153.22,-218.012 1153.66,-217.971 1174,-216.484 1197.06,-215.521 1222.55,-214.988 1250.15,-214.792 1279.55,-214.839 1310.42,-215.034 1342.47,-215.284 1375.36,-215.493 1408.8,-215.569 1442.46,-215.416 1476.03,-214.94 1509.21,-214.047 1541.67,-212.642 1573.1,-210.63 1603.2,-207.918 1631.66,-204.411 1658.15,-200.012 1682.37,-194.628 1704,-188.161 1722.74,-180.516 1725.54,-179.036 1727.99,-177.472 1730.15,-175.828 1732.04,-174.115 1733.7,-172.34 1735.16,-170.515 1736.47,-168.65 1737.65,-166.753 1738.75,-164.834 1739.8,-162.902 1740.84,-160.963 1741.9,-159.026 1743.03,-157.098 1744.25,-155.185 1745.61,-153.294 1747.14,-151.431 1748.88,-149.602 1750.87,-147.813 1753.14,-146.071 1755.73,-144.381 1764.03,-139.634 1772.58,-135.172 1781.36,-130.989 1790.32,-127.076 1799.42,-123.423 1808.63,-120.023 1817.92,-116.866 1827.23,-113.943 1836.55,-111.246 1845.82,-108.766 1855.02,-106.494 1864.1,-104.42 1873.02,-102.537 1881.76,-100.834 1890.28,-99.304 1898.52,-97.9367 1906.47,-96.7237 1914.08,-95.6558 1921.31,-94.7243 1928.13,-93.9201 1928.13,-93.9201 1921.31,-94.6907 1914.07,-95.5868 1906.45,-96.6173 1898.5,-97.7914 1890.24,-99.1185 1881.72,-100.607 1872.97,-102.268 1864.03,-104.108 1854.93,-106.138 1845.72,-108.367 1836.43,-110.804 1827.09,-113.458 1817.75,-116.338 1808.43,-119.454 1799.19,-122.814 1790.05,-126.429 1781.05,-130.308 1772.23,-134.459 1763.62,-138.892 1755.27,-143.619 1752.62,-145.329 1750.28,-147.103 1748.23,-148.931 1746.44,-150.802 1744.86,-152.708 1743.45,-154.638 1742.19,-156.584 1741.04,-158.535 1739.96,-160.482 1738.91,-162.418 1737.86,-164.333 1736.76,-166.22 1735.6,-168.071 1734.32,-169.879 1732.89,-171.638 1731.28,-173.342 1729.45,-174.986 1727.36,-176.562 1724.98,-178.065 1722.26,-179.484 1703.6,-186.994 1682.03,-193.324 1657.87,-198.571 1631.43,-202.827 1603.02,-206.187 1572.96,-208.747 1541.56,-210.6 1509.13,-211.844 1475.99,-212.573 1442.44,-212.884 1408.8,-212.872 1375.38,-212.632 1342.5,-212.26 1310.46,-211.853 1279.57,-211.506 1250.15,-211.314 1222.51,-211.374 1196.95,-211.783 1173.78,-212.636 1153.34,-214.029 1152.86,-214.073 1152.4,-214.114 1151.93,-214.156 1151.47,-214.198 1151.01,-214.24 1150.54,-214.282 1150.08,-214.324 1149.61,-214.367 1149.15,-214.41 1148.68,-214.453 1148.22,-214.496 1147.75,-214.539 1147.28,-214.583 1146.81,-214.626 1146.35,-214.67 1145.88,-214.714 1145.41,-214.759 1144.94,-214.803 1144.47,-214.847 1144,-214.892 1144.39,-218.873"/>
</g>
<!-- CodeBERT.GraphCodeBERT.clonedetection&#45;&gt;run -->
<g id="edge53" class="edge"><title>CodeBERT.GraphCodeBERT.clonedetection&#45;&gt;run</title>
<polygon fill="#dfe0df" stroke="none" stroke-width="4" points="1144.43,-218.998 1144.89,-218.945 1145.36,-218.891 1145.83,-218.838 1146.3,-218.786 1146.76,-218.733 1147.23,-218.68 1147.7,-218.627 1148.16,-218.575 1148.63,-218.523 1149.09,-218.47 1149.56,-218.418 1150.02,-218.366 1150.48,-218.314 1150.94,-218.263 1151.41,-218.211 1151.87,-218.159 1152.33,-218.108 1152.79,-218.057 1153.25,-218.006 1153.69,-217.956 1167.38,-216.686 1182.91,-215.659 1200.08,-214.825 1218.67,-214.134 1238.48,-213.533 1259.28,-212.972 1280.87,-212.4 1303.03,-211.765 1325.55,-211.015 1348.22,-210.1 1370.83,-208.969 1393.17,-207.568 1415.02,-205.848 1436.18,-203.756 1456.43,-201.241 1475.57,-198.252 1493.38,-194.735 1509.65,-190.639 1524.18,-185.909 1536.74,-180.496 1539.52,-178.987 1541.97,-177.424 1544.14,-175.808 1546.06,-174.142 1547.75,-172.431 1549.26,-170.682 1550.61,-168.898 1551.85,-167.084 1553,-165.246 1554.09,-163.386 1555.17,-161.51 1556.27,-159.619 1557.42,-157.717 1558.65,-155.807 1560,-153.891 1561.5,-151.97 1563.19,-150.048 1565.1,-148.127 1567.26,-146.209 1569.72,-144.296 1573.96,-141.284 1578.33,-138.347 1582.79,-135.487 1587.35,-132.706 1591.98,-130.005 1596.67,-127.385 1601.39,-124.847 1606.15,-122.392 1610.91,-120.021 1615.66,-117.735 1620.39,-115.534 1625.08,-113.421 1629.72,-111.396 1634.28,-109.46 1638.76,-107.614 1643.14,-105.859 1647.4,-104.196 1651.52,-102.626 1655.5,-101.15 1659.3,-99.7686 1659.3,-99.7686 1655.49,-101.122 1651.5,-102.569 1647.37,-104.109 1643.09,-105.741 1638.7,-107.465 1634.21,-109.278 1629.63,-111.182 1624.97,-113.174 1620.26,-115.254 1615.51,-117.421 1610.74,-119.675 1605.96,-122.013 1601.18,-124.437 1596.43,-126.944 1591.71,-129.534 1587.06,-132.206 1582.47,-134.96 1577.97,-137.794 1573.57,-140.709 1569.28,-143.704 1566.78,-145.623 1564.56,-147.557 1562.6,-149.499 1560.87,-151.445 1559.33,-153.389 1557.94,-155.327 1556.68,-157.253 1555.51,-159.164 1554.39,-161.055 1553.3,-162.92 1552.2,-164.757 1551.05,-166.561 1549.83,-168.33 1548.5,-170.06 1547.02,-171.749 1545.36,-173.396 1543.49,-174.998 1541.37,-176.553 1538.97,-178.057 1536.26,-179.504 1523.76,-184.785 1509.29,-189.377 1493.07,-193.335 1475.3,-196.708 1456.2,-199.549 1435.98,-201.909 1414.85,-203.842 1393.02,-205.399 1370.71,-206.634 1348.12,-207.599 1325.46,-208.347 1302.95,-208.931 1280.8,-209.403 1259.21,-209.817 1238.4,-210.226 1218.57,-210.682 1199.94,-211.238 1182.71,-211.948 1167.09,-212.866 1153.31,-214.044 1152.83,-214.093 1152.37,-214.141 1151.91,-214.189 1151.45,-214.237 1150.98,-214.285 1150.52,-214.334 1150.06,-214.382 1149.59,-214.431 1149.13,-214.479 1148.66,-214.528 1148.2,-214.577 1147.73,-214.626 1147.26,-214.675 1146.8,-214.724 1146.33,-214.774 1145.86,-214.823 1145.39,-214.873 1144.93,-214.922 1144.46,-214.972 1143.99,-215.022 1144.43,-218.998"/>
</g>
<!-- CodeBERT.GraphCodeBERT.clonedetection&#45;&gt;model -->
<g id="edge54" class="edge"><title>CodeBERT.GraphCodeBERT.clonedetection&#45;&gt;model</title>
<polygon fill="#dfe0df" stroke="none" stroke-width="4" points="1144.42,-218.968 1144.88,-218.916 1145.35,-218.864 1145.82,-218.812 1146.29,-218.761 1146.75,-218.709 1147.22,-218.658 1147.69,-218.607 1148.15,-218.556 1148.62,-218.505 1149.08,-218.454 1149.55,-218.403 1150.01,-218.353 1150.47,-218.302 1150.94,-218.252 1151.4,-218.202 1151.86,-218.152 1152.32,-218.102 1152.78,-218.052 1153.24,-218.003 1153.7,-217.954 1180.37,-215.155 1205.19,-212.681 1228.36,-210.492 1250.08,-208.552 1270.57,-206.821 1290.03,-205.263 1308.66,-203.839 1326.67,-202.511 1344.28,-201.242 1361.67,-199.995 1379.07,-198.73 1396.67,-197.411 1414.68,-195.999 1433.31,-194.456 1452.76,-192.746 1473.23,-190.829 1494.95,-188.669 1518.1,-186.227 1542.89,-183.466 1569.54,-180.348 1574.19,-179.782 1578.89,-179.193 1583.63,-178.584 1588.41,-177.956 1593.2,-177.312 1598,-176.654 1602.79,-175.986 1607.56,-175.309 1612.31,-174.626 1617.01,-173.94 1621.66,-173.253 1626.24,-172.567 1630.75,-171.886 1635.17,-171.21 1639.48,-170.544 1643.69,-169.889 1647.77,-169.248 1651.71,-168.624 1655.5,-168.018 1659.14,-167.434 1659.14,-167.434 1655.5,-167.99 1651.7,-168.566 1647.75,-169.16 1643.67,-169.77 1639.46,-170.392 1635.14,-171.025 1630.72,-171.666 1626.21,-172.313 1621.62,-172.963 1616.96,-173.614 1612.26,-174.264 1607.51,-174.91 1602.73,-175.549 1597.93,-176.181 1593.13,-176.801 1588.34,-177.407 1583.56,-177.998 1578.81,-178.571 1574.11,-179.123 1569.46,-179.652 1542.79,-182.564 1517.98,-185.133 1494.82,-187.396 1473.1,-189.387 1452.62,-191.145 1433.16,-192.704 1414.53,-194.101 1396.52,-195.374 1378.91,-196.557 1361.51,-197.686 1344.11,-198.8 1326.5,-199.932 1308.47,-201.121 1289.81,-202.401 1270.33,-203.81 1249.82,-205.384 1228.06,-207.158 1204.86,-209.169 1180.01,-211.453 1153.3,-214.046 1152.84,-214.093 1152.38,-214.139 1151.91,-214.185 1151.45,-214.231 1150.99,-214.278 1150.53,-214.324 1150.06,-214.371 1149.6,-214.418 1149.13,-214.465 1148.67,-214.512 1148.2,-214.559 1147.74,-214.607 1147.27,-214.654 1146.8,-214.702 1146.33,-214.75 1145.87,-214.798 1145.4,-214.846 1144.93,-214.894 1144.46,-214.942 1143.99,-214.99 1144.42,-218.968"/>
</g>
<!-- CodeBERT.GraphCodeBERT.clonedetection.parser -->
<g id="node28" class="node"><title>CodeBERT.GraphCodeBERT.clonedetection.parser</title>
<polygon fill="white" stroke="#dfe0df" points="634,-180 631,-184 610,-184 607,-180 335,-180 335,-144 634,-144 634,-180"/>
<text text-anchor="middle" x="484.5" y="-158.3" font-family="Times,serif" font-size="14.00">CodeBERT.GraphCodeBERT.clonedetection.parser</text>
</g>
<!-- CodeBERT.GraphCodeBERT.clonedetection&#45;&gt;CodeBERT.GraphCodeBERT.clonedetection.parser -->
<g id="edge45" class="edge"><title>CodeBERT.GraphCodeBERT.clonedetection&#45;&gt;CodeBERT.GraphCodeBERT.clonedetection.parser</title>
<polygon fill="#dfe0de" stroke="none" stroke-width="4" points="884.275,-213.983 871.748,-212.415 858.896,-210.807 845.755,-209.163 832.36,-207.487 818.748,-205.783 804.956,-204.057 791.018,-202.313 776.972,-200.556 762.854,-198.789 748.699,-197.018 734.544,-195.246 720.425,-193.479 706.378,-191.722 692.44,-189.978 678.646,-188.251 665.032,-186.548 651.635,-184.871 638.491,-183.227 625.636,-181.618 613.106,-180.05 613.106,-180.05 625.612,-181.801 638.442,-183.598 651.56,-185.435 664.931,-187.307 678.519,-189.21 692.286,-191.138 706.197,-193.086 720.217,-195.049 734.309,-197.022 748.436,-199 762.563,-200.979 776.655,-202.952 790.673,-204.915 804.584,-206.863 818.35,-208.79 831.935,-210.693 845.304,-212.565 858.419,-214.401 871.247,-216.198 883.749,-217.948 884.275,-213.983"/>
</g>
<!-- CodeBERT.GraphCodeBERT.clonedetection.evaluator -->
<g id="node29" class="node"><title>CodeBERT.GraphCodeBERT.clonedetection.evaluator</title>
<polygon fill="white" stroke="#dfe0df" points="317,-180 314,-184 293,-184 290,-180 0,-180 0,-144 317,-144 317,-180"/>
<text text-anchor="middle" x="158.5" y="-158.3" font-family="Times,serif" font-size="14.00">CodeBERT.GraphCodeBERT.clonedetection.evaluator</text>
</g>
<!-- CodeBERT.GraphCodeBERT.clonedetection&#45;&gt;CodeBERT.GraphCodeBERT.clonedetection.evaluator -->
<g id="edge50" class="edge"><title>CodeBERT.GraphCodeBERT.clonedetection&#45;&gt;CodeBERT.GraphCodeBERT.clonedetection.evaluator</title>
<polygon fill="#dfe0de" stroke="none" stroke-width="4" points="880.861,-221.8 859.476,-220.342 836.896,-218.792 813.208,-217.154 788.499,-215.432 762.856,-213.63 736.367,-211.754 709.119,-209.806 681.199,-207.791 652.695,-205.714 623.692,-203.579 594.28,-201.39 564.545,-199.152 534.574,-196.868 504.454,-194.543 474.273,-192.181 444.118,-189.787 414.077,-187.364 384.235,-184.918 354.682,-182.452 325.503,-179.97 325.089,-179.935 324.674,-179.899 324.26,-179.864 323.845,-179.828 323.429,-179.792 323.013,-179.756 322.597,-179.72 322.181,-179.684 321.764,-179.648 321.347,-179.611 320.929,-179.575 320.511,-179.539 320.093,-179.502 319.675,-179.466 319.256,-179.429 318.837,-179.393 318.417,-179.356 317.997,-179.319 317.577,-179.282 317.157,-179.245 317.157,-179.245 317.577,-179.285 317.997,-179.325 318.416,-179.365 318.836,-179.404 319.254,-179.444 319.673,-179.484 320.091,-179.523 320.509,-179.562 320.927,-179.602 321.344,-179.641 321.761,-179.68 322.178,-179.719 322.594,-179.758 323.01,-179.797 323.425,-179.836 323.84,-179.875 324.255,-179.914 324.67,-179.952 325.084,-179.991 325.497,-180.03 354.658,-182.717 384.194,-185.392 414.018,-188.05 444.043,-190.685 474.182,-193.293 504.346,-195.868 534.45,-198.406 564.406,-200.902 594.126,-203.351 623.524,-205.748 652.512,-208.089 681.003,-210.368 708.91,-212.58 736.146,-214.72 762.623,-216.785 788.254,-218.768 812.952,-220.665 836.629,-222.471 859.2,-224.18 880.575,-225.789 880.861,-221.8"/>
</g>
<!-- CodeBERT.GraphCodeBERT.clonedetection.parser&#45;&gt;utils -->
<g id="edge46" class="edge"><title>CodeBERT.GraphCodeBERT.clonedetection.parser&#45;&gt;utils</title>
<polygon fill="#dfe0df" stroke="none" stroke-width="4" points="634.411,-146.881 634.829,-146.835 635.247,-146.788 635.664,-146.741 636.081,-146.694 636.498,-146.648 636.915,-146.601 637.331,-146.554 637.747,-146.508 638.163,-146.461 638.578,-146.415 638.993,-146.368 639.407,-146.322 639.821,-146.276 640.235,-146.229 640.649,-146.183 641.062,-146.137 641.474,-146.091 641.887,-146.045 642.298,-145.998 642.71,-145.952 664.223,-143.552 684.231,-141.332 702.901,-139.272 720.4,-137.352 736.895,-135.55 752.554,-133.845 767.543,-132.217 782.031,-130.644 796.183,-129.106 810.168,-127.582 824.152,-126.051 838.303,-124.491 852.787,-122.883 867.772,-121.204 883.425,-119.435 899.913,-117.555 917.403,-115.541 936.062,-113.374 956.057,-111.033 977.557,-108.496 983.551,-107.783 989.62,-107.057 995.748,-106.318 1001.92,-105.571 1008.11,-104.816 1014.3,-104.058 1020.48,-103.297 1026.63,-102.537 1032.73,-101.78 1038.76,-101.029 1044.71,-100.286 1050.55,-99.5529 1056.28,-98.8331 1061.87,-98.1286 1067.3,-97.4419 1072.55,-96.7756 1077.62,-96.1321 1082.47,-95.5138 1087.1,-94.9232 1091.48,-94.3628 1091.48,-94.3628 1087.09,-94.8851 1082.46,-95.4354 1077.6,-96.0115 1072.53,-96.611 1067.27,-97.2315 1061.83,-97.8709 1056.24,-98.5268 1050.51,-99.1969 1044.66,-99.8788 1038.71,-100.57 1032.67,-101.269 1026.56,-101.973 1020.41,-102.679 1014.22,-103.386 1008.02,-104.091 1001.82,-104.791 995.651,-105.485 989.518,-106.17 983.443,-106.844 977.443,-107.504 955.924,-109.854 935.91,-112.021 917.234,-114.026 899.729,-115.887 883.227,-117.624 867.562,-119.257 852.564,-120.805 838.069,-122.287 823.907,-123.723 809.911,-125.133 795.915,-126.535 781.75,-127.95 767.249,-129.397 752.246,-130.894 736.572,-132.463 720.06,-134.122 702.543,-135.89 683.854,-137.788 663.826,-139.834 642.29,-142.048 641.878,-142.09 641.466,-142.133 641.053,-142.175 640.64,-142.218 640.227,-142.26 639.813,-142.303 639.399,-142.346 638.984,-142.388 638.569,-142.431 638.154,-142.474 637.739,-142.517 637.323,-142.56 636.906,-142.603 636.49,-142.646 636.073,-142.689 635.655,-142.732 635.238,-142.775 634.82,-142.818 634.401,-142.861 633.983,-142.904 634.411,-146.881"/>
</g>
<!-- CodeBERT.GraphCodeBERT.clonedetection.parser&#45;&gt;DFG -->
<g id="edge47" class="edge"><title>CodeBERT.GraphCodeBERT.clonedetection.parser&#45;&gt;DFG</title>
<polygon fill="#dfe0df" stroke="none" stroke-width="4" points="551.058,-145.889 562.342,-142.972 574.299,-139.893 586.879,-136.666 600.037,-133.304 613.722,-129.823 627.887,-126.236 642.485,-122.557 657.467,-118.801 672.784,-114.982 688.389,-111.114 704.234,-107.211 720.271,-103.288 736.451,-99.358 752.727,-95.4364 769.049,-91.5369 785.372,-87.6738 801.645,-83.8613 817.822,-80.1135 833.853,-76.4447 849.691,-72.8692 863.009,-69.9097 876.528,-66.953 890.191,-64.0078 903.944,-61.0825 917.732,-58.1856 931.5,-55.3257 945.193,-52.5113 958.755,-49.7509 972.133,-47.0531 985.27,-44.4263 998.111,-41.8791 1010.6,-39.4201 1022.69,-37.0577 1034.31,-34.8004 1045.42,-32.6569 1055.96,-30.6355 1065.87,-28.7448 1075.11,-26.9934 1083.6,-25.3897 1091.31,-23.9423 1091.31,-23.9423 1083.59,-25.3341 1075.08,-26.8764 1065.84,-28.5611 1055.91,-30.3802 1045.36,-32.3255 1034.23,-34.3889 1022.59,-36.5623 1010.49,-38.8375 997.981,-41.2064 985.12,-43.661 971.963,-46.1931 958.565,-48.7946 944.981,-51.4574 931.266,-54.1733 917.475,-56.9342 903.664,-59.7321 889.886,-62.5588 876.198,-65.4063 862.653,-68.2663 849.309,-71.1308 833.439,-74.5932 817.376,-78.1473 801.168,-81.7793 784.862,-85.4754 768.508,-89.2217 752.152,-93.0044 735.844,-96.8095 719.632,-100.623 703.563,-104.432 687.686,-108.221 672.049,-111.977 656.7,-115.687 641.688,-119.336 627.06,-122.91 612.865,-126.396 599.151,-129.779 585.967,-133.046 573.359,-136.184 561.378,-139.177 550.071,-142.012 551.058,-145.889"/>
</g>
<!-- CodeBERT.GraphCodeBERT.clonedetection.parser&#45;&gt;build -->
<g id="edge48" class="edge"><title>CodeBERT.GraphCodeBERT.clonedetection.parser&#45;&gt;build</title>
<polygon fill="#dfe0df" stroke="none" stroke-width="4" points="590.13,-145.942 606.342,-143.32 623.198,-140.602 640.59,-137.805 658.412,-134.945 676.556,-132.04 694.914,-129.106 713.378,-126.162 731.841,-123.224 750.196,-120.309 768.334,-117.435 786.149,-114.618 803.532,-111.876 820.377,-109.227 836.575,-106.686 852.02,-104.271 866.603,-102 880.217,-99.8888 892.754,-97.9557 904.107,-96.2173 914.169,-94.6909 914.169,-94.6909 904.089,-96.0946 892.715,-97.6944 880.155,-99.4746 866.516,-101.419 851.906,-103.513 836.433,-105.739 820.204,-108.082 803.328,-110.527 785.912,-113.057 768.064,-115.656 749.891,-118.309 731.501,-121 713.003,-123.713 694.503,-126.432 676.11,-129.141 657.932,-131.825 640.075,-134.468 622.648,-137.053 605.759,-139.566 589.516,-141.989 590.13,-145.942"/>
</g>
<!-- CodeBERT.GraphCodeBERT.clonedetection.parser&#45;&gt;build -->
<g id="edge49" class="edge"><title>CodeBERT.GraphCodeBERT.clonedetection.parser&#45;&gt;build</title>
<polygon fill="#dfe0df" stroke="none" stroke-width="4" points="601.897,-145.943 617.964,-143.414 634.56,-140.794 651.589,-138.1 668.954,-135.346 686.558,-132.549 704.307,-129.723 722.104,-126.884 739.852,-124.047 757.456,-121.227 774.82,-118.44 791.848,-115.702 808.443,-113.027 824.509,-110.43 839.95,-107.928 854.671,-105.535 868.575,-103.267 881.565,-101.139 893.547,-99.167 904.424,-97.3656 914.099,-95.7503 914.099,-95.7503 904.404,-97.243 893.506,-98.9067 881.501,-100.727 868.484,-102.69 854.553,-104.782 839.804,-106.989 824.332,-109.295 808.235,-111.688 791.608,-114.153 774.548,-116.676 757.151,-119.243 739.513,-121.84 721.731,-124.452 703.901,-127.066 686.119,-129.667 668.481,-132.241 651.084,-134.774 634.024,-137.253 617.397,-139.662 601.3,-141.988 601.897,-145.943"/>
</g>
<!-- CodeBERT.GraphCodeBERT.clonedetection.evaluator&#45;&gt;evaluator -->
<g id="edge51" class="edge"><title>CodeBERT.GraphCodeBERT.clonedetection.evaluator&#45;&gt;evaluator</title>
<polygon fill="#dfe0df" stroke="none" stroke-width="4" points="160.5,-143.697 160.407,-142.047 160.312,-140.355 160.215,-138.627 160.116,-136.866 160.016,-135.078 159.914,-133.267 159.811,-131.438 159.708,-129.595 159.604,-127.743 159.499,-125.886 159.395,-124.03 159.291,-122.179 159.187,-120.337 159.085,-118.51 158.983,-116.701 158.883,-114.916 158.784,-113.159 158.687,-111.435 158.592,-109.749 158.5,-108.104 158.5,-108.104 158.408,-109.749 158.313,-111.435 158.216,-113.159 158.117,-114.916 158.017,-116.701 157.915,-118.51 157.813,-120.337 157.709,-122.179 157.605,-124.03 157.501,-125.886 157.396,-127.743 157.292,-129.595 157.189,-131.438 157.086,-133.267 156.984,-135.078 156.884,-136.866 156.785,-138.627 156.688,-140.355 156.593,-142.047 156.5,-143.697 160.5,-143.697"/>
</g>
</g>
</svg>
